<?xml version="1.0" encoding="UTF-8" standalone="no"?><svg xmlns="http://www.w3.org/2000/svg" xmlns:xlink="http://www.w3.org/1999/xlink" clip-rule="evenodd" stroke-miterlimit="4.00" viewBox="0 0 1920 1080"><desc>SVG generated by Keynote</desc><defs></defs><g transform="matrix(1.00, 0.00, -0.00, -1.00, 0.0, 1080.0)"><g><clipPath id="clip-253"><path d="M 0.0 1080.0 L 1920.0 1080.0 L 1920.0 0.0 L 0.0 0.0 Z M 0.0 1080.0 "></path></clipPath><g clip-path="url(#clip-253)"><image xlink:href="../../A172C229-966A-4E8A-A457-DFB78DE74FB5/assets/4B0075050CC9D0F3DC006F0CDE78D676.jpeg" width="1365.00" height="767.00" transform="matrix(1.41, 0.00, -0.00, -1.41, 0.0, 1080.0)"></image></g></g><path d="M 182.5 840.3 L 1463.0 840.3 L 1463.0 598.8 L 182.5 598.8 Z M 182.5 840.3 " fill="#000000"></path><image xlink:href="../../27A95B4E-286D-4390-9A8F-0F7DDCF87C28/assets/8355BD0B7FE4A1F3BAF9A46B4B44C974.png" width="417.00" height="48.00" transform="matrix(1.00, 0.00, -0.00, -1.00, 1001.0, 558.0)"></image><text xml:space="preserve" font-family="HelveticaNeue-Light" font-size="43.0" fill="#FEFFFE" transform="matrix(1.00, 0.00, -0.00, -1.00, 1006.0, 526.0)">T</text><text xml:space="preserve" font-family="HelveticaNeue-Light" font-size="43.0" fill="#FEFFFE" transform="matrix(1.00, 0.00, -0.00, -1.00, 1026.0, 526.0)">r</text><text xml:space="preserve" font-family="HelveticaNeue-Light" font-size="43.0" fill="#FEFFFE" transform="matrix(1.00, 0.00, -0.00, -1.00, 1038.7, 526.0)">e</text><text xml:space="preserve" font-family="HelveticaNeue-Light" font-size="43.0" fill="#FEFFFE" transform="matrix(1.00, 0.00, -0.00, -1.00, 1061.0, 526.0)">a</text><text xml:space="preserve" font-family="HelveticaNeue-Light" font-size="43.0" fill="#FEFFFE" transform="matrix(1.00, 0.00, -0.00, -1.00, 1083.4, 526.0)">t</text><text xml:space="preserve" font-family="HelveticaNeue-Light" font-size="43.0" fill="#FEFFFE" transform="matrix(1.00, 0.00, -0.00, -1.00, 1096.1, 526.0)">m</text><text xml:space="preserve" font-family="HelveticaNeue-Light" font-size="43.0" fill="#FEFFFE" transform="matrix(1.00, 0.00, -0.00, -1.00, 1131.9, 526.0)">e</text><text xml:space="preserve" font-family="HelveticaNeue-Light" font-size="43.0" fill="#FEFFFE" transform="matrix(1.00, 0.00, -0.00, -1.00, 1154.2, 526.0)">n</text><text xml:space="preserve" font-family="HelveticaNeue-Light" font-size="43.0" fill="#FEFFFE" transform="matrix(1.00, 0.00, -0.00, -1.00, 1177.3, 526.0)">t</text><text xml:space="preserve" font-family="HelveticaNeue-Light" font-size="43.0" fill="#FEFFFE" transform="matrix(1.00, 0.00, -0.00, -1.00, 1190.0, 526.0)"> </text><text xml:space="preserve" font-family="HelveticaNeue-Light" font-size="43.0" fill="#FEFFFE" transform="matrix(1.00, 0.00, -0.00, -1.00, 1202.0, 526.0)">a</text><text xml:space="preserve" font-family="HelveticaNeue-Light" font-size="43.0" fill="#FEFFFE" transform="matrix(1.00, 0.00, -0.00, -1.00, 1224.3, 526.0)">s</text><text xml:space="preserve" font-family="HelveticaNeue-Light" font-size="43.0" fill="#FEFFFE" transform="matrix(1.00, 0.00, -0.00, -1.00, 1245.0, 526.0)">s</text><text xml:space="preserve" font-family="HelveticaNeue-Light" font-size="43.0" fill="#FEFFFE" transform="matrix(1.00, 0.00, -0.00, -1.00, 1265.7, 526.0)">i</text><text xml:space="preserve" font-family="HelveticaNeue-Light" font-size="43.0" fill="#FEFFFE" transform="matrix(1.00, 0.00, -0.00, -1.00, 1273.6, 526.0)">g</text><text xml:space="preserve" font-family="HelveticaNeue-Light" font-size="43.0" fill="#FEFFFE" transform="matrix(1.00, 0.00, -0.00, -1.00, 1297.5, 526.0)">n</text><text xml:space="preserve" font-family="HelveticaNeue-Light" font-size="43.0" fill="#FEFFFE" transform="matrix(1.00, 0.00, -0.00, -1.00, 1320.6, 526.0)">m</text><text xml:space="preserve" font-family="HelveticaNeue-Light" font-size="43.0" fill="#FEFFFE" transform="matrix(1.00, 0.00, -0.00, -1.00, 1356.5, 526.0)">e</text><text xml:space="preserve" font-family="HelveticaNeue-Light" font-size="43.0" fill="#FEFFFE" transform="matrix(1.00, 0.00, -0.00, -1.00, 1378.8, 526.0)">n</text><text xml:space="preserve" font-family="HelveticaNeue-Light" font-size="43.0" fill="#FEFFFE" transform="matrix(1.00, 0.00, -0.00, -1.00, 1401.9, 526.0)">t</text><text xml:space="preserve" font-family="HelveticaNeue-Light" font-size="43.0" fill="#FEFFFE" transform="matrix(1.00, 0.00, -0.00, -1.00, 1414.6, 526.0)"> </text><image xlink:href="../../27A95B4E-286D-4390-9A8F-0F7DDCF87C28/assets/CC64143BC679C1658109D296635C2DFF.png" width="451.00" height="48.00" transform="matrix(1.00, 0.00, -0.00, -1.00, 984.0, 506.0)"></image><text xml:space="preserve" font-family="HelveticaNeue-Light" font-size="43.0" fill="#FEFFFE" transform="matrix(1.00, 0.00, -0.00, -1.00, 986.0, 474.0)">i</text><text xml:space="preserve" font-family="HelveticaNeue-Light" font-size="43.0" fill="#FEFFFE" transform="matrix(1.00, 0.00, -0.00, -1.00, 994.0, 474.0)">n</text><text xml:space="preserve" font-family="HelveticaNeue-Light" font-size="43.0" fill="#FEFFFE" transform="matrix(1.00, 0.00, -0.00, -1.00, 1017.0, 474.0)">d</text><text xml:space="preserve" font-family="HelveticaNeue-Light" font-size="43.0" fill="#FEFFFE" transform="matrix(1.00, 0.00, -0.00, -1.00, 1041.7, 474.0)">e</text><text xml:space="preserve" font-family="HelveticaNeue-Light" font-size="43.0" fill="#FEFFFE" transform="matrix(1.00, 0.00, -0.00, -1.00, 1064.0, 474.0)">p</text><text xml:space="preserve" font-family="HelveticaNeue-Light" font-size="43.0" fill="#FEFFFE" transform="matrix(1.00, 0.00, -0.00, -1.00, 1088.7, 474.0)">e</text><text xml:space="preserve" font-family="HelveticaNeue-Light" font-size="43.0" fill="#FEFFFE" transform="matrix(1.00, 0.00, -0.00, -1.00, 1111.0, 474.0)">n</text><text xml:space="preserve" font-family="HelveticaNeue-Light" font-size="43.0" fill="#FEFFFE" transform="matrix(1.00, 0.00, -0.00, -1.00, 1134.1, 474.0)">d</text><text xml:space="preserve" font-family="HelveticaNeue-Light" font-size="43.0" fill="#FEFFFE" transform="matrix(1.00, 0.00, -0.00, -1.00, 1158.8, 474.0)">e</text><text xml:space="preserve" font-family="HelveticaNeue-Light" font-size="43.0" fill="#FEFFFE" transform="matrix(1.00, 0.00, -0.00, -1.00, 1181.1, 474.0)">n</text><text xml:space="preserve" font-family="HelveticaNeue-Light" font-size="43.0" fill="#FEFFFE" transform="matrix(1.00, 0.00, -0.00, -1.00, 1204.2, 474.0)">t</text><text xml:space="preserve" font-family="HelveticaNeue-Light" font-size="43.0" fill="#FEFFFE" transform="matrix(1.00, 0.00, -0.00, -1.00, 1217.0, 474.0)"> </text><text xml:space="preserve" font-family="HelveticaNeue-Light" font-size="43.0" fill="#FEFFFE" transform="matrix(1.00, 0.00, -0.00, -1.00, 1228.9, 474.0)">o</text><text xml:space="preserve" font-family="HelveticaNeue-Light" font-size="43.0" fill="#FEFFFE" transform="matrix(1.00, 0.00, -0.00, -1.00, 1252.8, 474.0)">f</text><text xml:space="preserve" font-family="HelveticaNeue-Light" font-size="43.0" fill="#FEFFFE" transform="matrix(1.00, 0.00, -0.00, -1.00, 1264.0, 474.0)"> </text><text xml:space="preserve" font-family="HelveticaNeue-Light" font-size="43.0" fill="#FEFFFE" transform="matrix(1.00, 0.00, -0.00, -1.00, 1275.9, 474.0)">p</text><text xml:space="preserve" font-family="HelveticaNeue-Light" font-size="43.0" fill="#FEFFFE" transform="matrix(1.00, 0.00, -0.00, -1.00, 1300.6, 474.0)">o</text><text xml:space="preserve" font-family="HelveticaNeue-Light" font-size="43.0" fill="#FEFFFE" transform="matrix(1.00, 0.00, -0.00, -1.00, 1324.5, 474.0)">t</text><text xml:space="preserve" font-family="HelveticaNeue-Light" font-size="43.0" fill="#FEFFFE" transform="matrix(1.00, 0.00, -0.00, -1.00, 1337.2, 474.0)">e</text><text xml:space="preserve" font-family="HelveticaNeue-Light" font-size="43.0" fill="#FEFFFE" transform="matrix(1.00, 0.00, -0.00, -1.00, 1359.5, 474.0)">n</text><text xml:space="preserve" font-family="HelveticaNeue-Light" font-size="43.0" fill="#FEFFFE" transform="matrix(1.00, 0.00, -0.00, -1.00, 1382.6, 474.0)">t</text><text xml:space="preserve" font-family="HelveticaNeue-Light" font-size="43.0" fill="#FEFFFE" transform="matrix(1.00, 0.00, -0.00, -1.00, 1395.4, 474.0)">i</text><text xml:space="preserve" font-family="HelveticaNeue-Light" font-size="43.0" fill="#FEFFFE" transform="matrix(1.00, 0.00, -0.00, -1.00, 1403.3, 474.0)">a</text><text xml:space="preserve" font-family="HelveticaNeue-Light" font-size="43.0" fill="#FEFFFE" transform="matrix(1.00, 0.00, -0.00, -1.00, 1425.6, 474.0)">l</text><text xml:space="preserve" font-family="HelveticaNeue-Light" font-size="43.0" fill="#FEFFFE" transform="matrix(1.00, 0.00, -0.00, -1.00, 1433.6, 474.0)"> </text><image xlink:href="../../27A95B4E-286D-4390-9A8F-0F7DDCF87C28/assets/6C3DEE90D0212BD8F560505B609B2DE1.png" width="191.00" height="38.00" transform="matrix(1.00, 0.00, -0.00, -1.00, 1115.0, 452.0)"></image><text xml:space="preserve" font-family="HelveticaNeue-Light" font-size="43.0" fill="#FEFFFE" transform="matrix(1.00, 0.00, -0.00, -1.00, 1118.0, 422.0)">o</text><text xml:space="preserve" font-family="HelveticaNeue-Light" font-size="43.0" fill="#FEFFFE" transform="matrix(1.00, 0.00, -0.00, -1.00, 1141.9, 422.0)">u</text><text xml:space="preserve" font-family="HelveticaNeue-Light" font-size="43.0" fill="#FEFFFE" transform="matrix(1.00, 0.00, -0.00, -1.00, 1165.0, 422.0)">t</text><text xml:space="preserve" font-family="HelveticaNeue-Light" font-size="43.0" fill="#FEFFFE" transform="matrix(1.00, 0.00, -0.00, -1.00, 1177.7, 422.0)">c</text><text xml:space="preserve" font-family="HelveticaNeue-Light" font-size="43.0" fill="#FEFFFE" transform="matrix(1.00, 0.00, -0.00, -1.00, 1200.0, 422.0)">o</text><text xml:space="preserve" font-family="HelveticaNeue-Light" font-size="43.0" fill="#FEFFFE" transform="matrix(1.00, 0.00, -0.00, -1.00, 1224.0, 422.0)">m</text><text xml:space="preserve" font-family="HelveticaNeue-Light" font-size="43.0" fill="#FEFFFE" transform="matrix(1.00, 0.00, -0.00, -1.00, 1259.8, 422.0)">e</text><text xml:space="preserve" font-family="HelveticaNeue-Light" font-size="43.0" fill="#FEFFFE" transform="matrix(1.00, 0.00, -0.00, -1.00, 1282.1, 422.0)">s</text><image xlink:href="../../27A95B4E-286D-4390-9A8F-0F7DDCF87C28/assets/50CC97DCCFF70DD4898635372D3DB73F.png" width="934.00" height="52.00" transform="matrix(1.00, 0.00, -0.00, -1.00, 379.0, 328.0)"></image><text xml:space="preserve" font-family="HelveticaNeue-Light" font-size="58.0" fill="#FEFFFE" transform="matrix(1.00, 0.00, -0.00, -1.00, 381.0, 284.0)">S</text><text xml:space="preserve" font-family="HelveticaNeue-Light" font-size="58.0" fill="#FEFFFE" transform="matrix(1.00, 0.00, -0.00, -1.00, 417.5, 284.0)">o</text><text xml:space="preserve" font-family="HelveticaNeue-Light" font-size="58.0" fill="#FEFFFE" transform="matrix(1.00, 0.00, -0.00, -1.00, 449.8, 284.0)"> </text><text xml:space="preserve" font-family="HelveticaNeue-Light" font-size="58.0" fill="#FEFFFE" transform="matrix(1.00, 0.00, -0.00, -1.00, 465.9, 284.0)">i</text><text xml:space="preserve" font-family="HelveticaNeue-Light" font-size="58.0" fill="#FEFFFE" transform="matrix(1.00, 0.00, -0.00, -1.00, 476.6, 284.0)">n</text><text xml:space="preserve" font-family="HelveticaNeue-Light" font-size="58.0" fill="#FEFFFE" transform="matrix(1.00, 0.00, -0.00, -1.00, 507.8, 284.0)"> </text><text xml:space="preserve" font-family="HelveticaNeue-Light" font-size="58.0" fill="#FEFFFE" transform="matrix(1.00, 0.00, -0.00, -1.00, 523.9, 284.0)">a</text><text xml:space="preserve" font-family="HelveticaNeue-Light" font-size="58.0" fill="#FEFFFE" transform="matrix(1.00, 0.00, -0.00, -1.00, 554.0, 284.0)">n</text><text xml:space="preserve" font-family="HelveticaNeue-Light" font-size="58.0" fill="#FEFFFE" transform="matrix(1.00, 0.00, -0.00, -1.00, 585.2, 284.0)"> </text><text xml:space="preserve" font-family="HelveticaNeue-Light" font-size="58.0" fill="#FEFFFE" transform="matrix(1.00, 0.00, -0.00, -1.00, 601.3, 284.0)">R</text><text xml:space="preserve" font-family="HelveticaNeue-Light" font-size="58.0" fill="#FEFFFE" transform="matrix(1.00, 0.00, -0.00, -1.00, 640.0, 284.0)">C</text><text xml:space="preserve" font-family="HelveticaNeue-Light" font-size="58.0" fill="#FEFFFE" transform="matrix(1.00, 0.00, -0.00, -1.00, 680.8, 284.0)">T</text><text xml:space="preserve" font-family="HelveticaNeue-Light" font-size="58.0" fill="#FEFFFE" transform="matrix(1.00, 0.00, -0.00, -1.00, 713.0, 284.0)"> </text><text xml:space="preserve" font-family="HelveticaNeue-Light" font-size="58.0" fill="#FEFFFE" transform="matrix(1.00, 0.00, -0.00, -1.00, 729.2, 284.0)">t</text><text xml:space="preserve" font-family="HelveticaNeue-Light" font-size="58.0" fill="#FEFFFE" transform="matrix(1.00, 0.00, -0.00, -1.00, 746.3, 284.0)">h</text><text xml:space="preserve" font-family="HelveticaNeue-Light" font-size="58.0" fill="#FEFFFE" transform="matrix(1.00, 0.00, -0.00, -1.00, 777.5, 284.0)">e</text><text xml:space="preserve" font-family="HelveticaNeue-Light" font-size="58.0" fill="#FEFFFE" transform="matrix(1.00, 0.00, -0.00, -1.00, 807.6, 284.0)"> </text><text xml:space="preserve" font-family="HelveticaNeue-Light" font-size="58.0" fill="#FEFFFE" transform="matrix(1.00, 0.00, -0.00, -1.00, 823.7, 284.0)">o</text><text xml:space="preserve" font-family="HelveticaNeue-Light" font-size="58.0" fill="#FEFFFE" transform="matrix(1.00, 0.00, -0.00, -1.00, 856.0, 284.0)">b</text><text xml:space="preserve" font-family="HelveticaNeue-Light" font-size="58.0" fill="#FEFFFE" transform="matrix(1.00, 0.00, -0.00, -1.00, 889.3, 284.0)">s</text><text xml:space="preserve" font-family="HelveticaNeue-Light" font-size="58.0" fill="#FEFFFE" transform="matrix(1.00, 0.00, -0.00, -1.00, 917.2, 284.0)">e</text><text xml:space="preserve" font-family="HelveticaNeue-Light" font-size="58.0" fill="#FEFFFE" transform="matrix(1.00, 0.00, -0.00, -1.00, 947.3, 284.0)">r</text><text xml:space="preserve" font-family="HelveticaNeue-Light" font-size="58.0" fill="#FEFFFE" transform="matrix(1.00, 0.00, -0.00, -1.00, 965.5, 284.0)">v</text><text xml:space="preserve" font-family="HelveticaNeue-Light" font-size="58.0" fill="#FEFFFE" transform="matrix(1.00, 0.00, -0.00, -1.00, 992.4, 284.0)">e</text><text xml:space="preserve" font-family="HelveticaNeue-Light" font-size="58.0" fill="#FEFFFE" transform="matrix(1.00, 0.00, -0.00, -1.00, 1022.5, 284.0)">d</text><text xml:space="preserve" font-family="HelveticaNeue-Light" font-size="58.0" fill="#FEFFFE" transform="matrix(1.00, 0.00, -0.00, -1.00, 1055.8, 284.0)"> </text><text xml:space="preserve" font-family="HelveticaNeue-Light" font-size="58.0" fill="#FEFFFE" transform="matrix(1.00, 0.00, -0.00, -1.00, 1071.9, 284.0)">t</text><text xml:space="preserve" font-family="HelveticaNeue-Light" font-size="58.0" fill="#FEFFFE" transform="matrix(1.00, 0.00, -0.00, -1.00, 1089.1, 284.0)">r</text><text xml:space="preserve" font-family="HelveticaNeue-Light" font-size="58.0" fill="#FEFFFE" transform="matrix(1.00, 0.00, -0.00, -1.00, 1106.3, 284.0)">e</text><text xml:space="preserve" font-family="HelveticaNeue-Light" font-size="58.0" fill="#FEFFFE" transform="matrix(1.00, 0.00, -0.00, -1.00, 1136.4, 284.0)">a</text><text xml:space="preserve" font-family="HelveticaNeue-Light" font-size="58.0" fill="#FEFFFE" transform="matrix(1.00, 0.00, -0.00, -1.00, 1166.5, 284.0)">t</text><text xml:space="preserve" font-family="HelveticaNeue-Light" font-size="58.0" fill="#FEFFFE" transform="matrix(1.00, 0.00, -0.00, -1.00, 1183.7, 284.0)">m</text><text xml:space="preserve" font-family="HelveticaNeue-Light" font-size="58.0" fill="#FEFFFE" transform="matrix(1.00, 0.00, -0.00, -1.00, 1232.0, 284.0)">e</text><text xml:space="preserve" font-family="HelveticaNeue-Light" font-size="58.0" fill="#FEFFFE" transform="matrix(1.00, 0.00, -0.00, -1.00, 1262.1, 284.0)">n</text><text xml:space="preserve" font-family="HelveticaNeue-Light" font-size="58.0" fill="#FEFFFE" transform="matrix(1.00, 0.00, -0.00, -1.00, 1293.2, 284.0)">t</text><text xml:space="preserve" font-family="HelveticaNeue-Light" font-size="58.0" fill="#FEFFFE" transform="matrix(1.00, 0.00, -0.00, -1.00, 1310.4, 284.0)"> </text><image xlink:href="../../27A95B4E-286D-4390-9A8F-0F7DDCF87C28/assets/978C296AFE8A4BD1FC8C078474B91CCA.png" width="955.00" height="62.00" transform="matrix(1.00, 0.00, -0.00, -1.00, 369.0, 257.0)"></image><text xml:space="preserve" font-family="HelveticaNeue-Light" font-size="58.0" fill="#FEFFFE" transform="matrix(1.00, 0.00, -0.00, -1.00, 372.0, 214.0)">e</text><text xml:space="preserve" font-family="HelveticaNeue-Light" font-size="58.0" fill="#FEFFFE" transform="matrix(1.00, 0.00, -0.00, -1.00, 402.1, 214.0)">f</text><text xml:space="preserve" font-family="HelveticaNeue-Light" font-size="58.0" fill="#FEFFFE" transform="matrix(1.00, 0.00, -0.00, -1.00, 416.1, 214.0)">f</text><text xml:space="preserve" font-family="HelveticaNeue-Light" font-size="58.0" fill="#FEFFFE" transform="matrix(1.00, 0.00, -0.00, -1.00, 431.1, 214.0)">e</text><text xml:space="preserve" font-family="HelveticaNeue-Light" font-size="58.0" fill="#FEFFFE" transform="matrix(1.00, 0.00, -0.00, -1.00, 461.2, 214.0)">c</text><text xml:space="preserve" font-family="HelveticaNeue-Light" font-size="58.0" fill="#FEFFFE" transform="matrix(1.00, 0.00, -0.00, -1.00, 491.3, 214.0)">t</text><text xml:space="preserve" font-family="HelveticaNeue-Light" font-size="58.0" fill="#FEFFFE" transform="matrix(1.00, 0.00, -0.00, -1.00, 508.5, 214.0)"> </text><text xml:space="preserve" font-family="HelveticaNeue-Light" font-size="58.0" fill="#FEFFFE" transform="matrix(1.00, 0.00, -0.00, -1.00, 524.6, 214.0)">e</text><text xml:space="preserve" font-family="HelveticaNeue-Light" font-size="58.0" fill="#FEFFFE" transform="matrix(1.00, 0.00, -0.00, -1.00, 554.7, 214.0)">s</text><text xml:space="preserve" font-family="HelveticaNeue-Light" font-size="58.0" fill="#FEFFFE" transform="matrix(1.00, 0.00, -0.00, -1.00, 582.6, 214.0)">t</text><text xml:space="preserve" font-family="HelveticaNeue-Light" font-size="58.0" fill="#FEFFFE" transform="matrix(1.00, 0.00, -0.00, -1.00, 599.8, 214.0)">i</text><text xml:space="preserve" font-family="HelveticaNeue-Light" font-size="58.0" fill="#FEFFFE" transform="matrix(1.00, 0.00, -0.00, -1.00, 610.5, 214.0)">m</text><text xml:space="preserve" font-family="HelveticaNeue-Light" font-size="58.0" fill="#FEFFFE" transform="matrix(1.00, 0.00, -0.00, -1.00, 658.8, 214.0)">a</text><text xml:space="preserve" font-family="HelveticaNeue-Light" font-size="58.0" fill="#FEFFFE" transform="matrix(1.00, 0.00, -0.00, -1.00, 688.9, 214.0)">t</text><text xml:space="preserve" font-family="HelveticaNeue-Light" font-size="58.0" fill="#FEFFFE" transform="matrix(1.00, 0.00, -0.00, -1.00, 706.1, 214.0)">e</text><text xml:space="preserve" font-family="HelveticaNeue-Light" font-size="58.0" fill="#FEFFFE" transform="matrix(1.00, 0.00, -0.00, -1.00, 736.2, 214.0)">s</text><text xml:space="preserve" font-family="HelveticaNeue-Light" font-size="58.0" fill="#FEFFFE" transform="matrix(1.00, 0.00, -0.00, -1.00, 764.1, 214.0)"> </text><text xml:space="preserve" font-family="HelveticaNeue-Light" font-size="58.0" fill="#FEFFFE" transform="matrix(1.00, 0.00, -0.00, -1.00, 780.2, 214.0)">t</text><text xml:space="preserve" font-family="HelveticaNeue-Light" font-size="58.0" fill="#FEFFFE" transform="matrix(1.00, 0.00, -0.00, -1.00, 797.4, 214.0)">h</text><text xml:space="preserve" font-family="HelveticaNeue-Light" font-size="58.0" fill="#FEFFFE" transform="matrix(1.00, 0.00, -0.00, -1.00, 828.5, 214.0)">e</text><text xml:space="preserve" font-family="HelveticaNeue-Light" font-size="58.0" fill="#FEFFFE" transform="matrix(1.00, 0.00, -0.00, -1.00, 858.6, 214.0)"> </text><text xml:space="preserve" font-family="HelveticaNeue-Light" font-size="58.0" fill="#FEFFFE" transform="matrix(1.00, 0.00, -0.00, -1.00, 874.7, 214.0)">e</text><text xml:space="preserve" font-family="HelveticaNeue-Light" font-size="58.0" fill="#FEFFFE" transform="matrix(1.00, 0.00, -0.00, -1.00, 904.8, 214.0)">x</text><text xml:space="preserve" font-family="HelveticaNeue-Light" font-size="58.0" fill="#FEFFFE" transform="matrix(1.00, 0.00, -0.00, -1.00, 932.7, 214.0)">p</text><text xml:space="preserve" font-family="HelveticaNeue-Light" font-size="58.0" fill="#FEFFFE" transform="matrix(1.00, 0.00, -0.00, -1.00, 966.0, 214.0)">e</text><text xml:space="preserve" font-family="HelveticaNeue-Light" font-size="58.0" fill="#FEFFFE" transform="matrix(1.00, 0.00, -0.00, -1.00, 996.1, 214.0)">c</text><text xml:space="preserve" font-family="HelveticaNeue-Light" font-size="58.0" fill="#FEFFFE" transform="matrix(1.00, 0.00, -0.00, -1.00, 1026.2, 214.0)">t</text><text xml:space="preserve" font-family="HelveticaNeue-Light" font-size="58.0" fill="#FEFFFE" transform="matrix(1.00, 0.00, -0.00, -1.00, 1043.4, 214.0)">e</text><text xml:space="preserve" font-family="HelveticaNeue-Light" font-size="58.0" fill="#FEFFFE" transform="matrix(1.00, 0.00, -0.00, -1.00, 1073.5, 214.0)">d</text><text xml:space="preserve" font-family="HelveticaNeue-Light" font-size="58.0" fill="#FEFFFE" transform="matrix(1.00, 0.00, -0.00, -1.00, 1106.8, 214.0)"> </text><text xml:space="preserve" font-family="HelveticaNeue-Light" font-size="58.0" fill="#FEFFFE" transform="matrix(1.00, 0.00, -0.00, -1.00, 1122.9, 214.0)">a</text><text xml:space="preserve" font-family="HelveticaNeue-Light" font-size="58.0" fill="#FEFFFE" transform="matrix(1.00, 0.00, -0.00, -1.00, 1153.0, 214.0)">v</text><text xml:space="preserve" font-family="HelveticaNeue-Light" font-size="58.0" fill="#FEFFFE" transform="matrix(1.00, 0.00, -0.00, -1.00, 1179.9, 214.0)">e</text><text xml:space="preserve" font-family="HelveticaNeue-Light" font-size="58.0" fill="#FEFFFE" transform="matrix(1.00, 0.00, -0.00, -1.00, 1210.0, 214.0)">r</text><text xml:space="preserve" font-family="HelveticaNeue-Light" font-size="58.0" fill="#FEFFFE" transform="matrix(1.00, 0.00, -0.00, -1.00, 1228.3, 214.0)">a</text><text xml:space="preserve" font-family="HelveticaNeue-Light" font-size="58.0" fill="#FEFFFE" transform="matrix(1.00, 0.00, -0.00, -1.00, 1258.4, 214.0)">g</text><text xml:space="preserve" font-family="HelveticaNeue-Light" font-size="58.0" fill="#FEFFFE" transform="matrix(1.00, 0.00, -0.00, -1.00, 1290.6, 214.0)">e</text><text xml:space="preserve" font-family="HelveticaNeue-Light" font-size="58.0" fill="#FEFFFE" transform="matrix(1.00, 0.00, -0.00, -1.00, 1320.7, 214.0)"> </text><image xlink:href="../../27A95B4E-286D-4390-9A8F-0F7DDCF87C28/assets/3E67A51ED56C09799C78A2F8EF1D5E7D.png" width="398.00" height="51.00" transform="matrix(1.00, 0.00, -0.00, -1.00, 647.0, 187.0)"></image><text xml:space="preserve" font-family="HelveticaNeue-Light" font-size="58.0" fill="#FEFFFE" transform="matrix(1.00, 0.00, -0.00, -1.00, 651.0, 144.0)">t</text><text xml:space="preserve" font-family="HelveticaNeue-Light" font-size="58.0" fill="#FEFFFE" transform="matrix(1.00, 0.00, -0.00, -1.00, 668.2, 144.0)">r</text><text xml:space="preserve" font-family="HelveticaNeue-Light" font-size="58.0" fill="#FEFFFE" transform="matrix(1.00, 0.00, -0.00, -1.00, 685.4, 144.0)">e</text><text xml:space="preserve" font-family="HelveticaNeue-Light" font-size="58.0" fill="#FEFFFE" transform="matrix(1.00, 0.00, -0.00, -1.00, 715.5, 144.0)">a</text><text xml:space="preserve" font-family="HelveticaNeue-Light" font-size="58.0" fill="#FEFFFE" transform="matrix(1.00, 0.00, -0.00, -1.00, 745.6, 144.0)">t</text><text xml:space="preserve" font-family="HelveticaNeue-Light" font-size="58.0" fill="#FEFFFE" transform="matrix(1.00, 0.00, -0.00, -1.00, 762.8, 144.0)">m</text><text xml:space="preserve" font-family="HelveticaNeue-Light" font-size="58.0" fill="#FEFFFE" transform="matrix(1.00, 0.00, -0.00, -1.00, 811.1, 144.0)">e</text><text xml:space="preserve" font-family="HelveticaNeue-Light" font-size="58.0" fill="#FEFFFE" transform="matrix(1.00, 0.00, -0.00, -1.00, 841.2, 144.0)">n</text><text xml:space="preserve" font-family="HelveticaNeue-Light" font-size="58.0" fill="#FEFFFE" transform="matrix(1.00, 0.00, -0.00, -1.00, 872.3, 144.0)">t</text><text xml:space="preserve" font-family="HelveticaNeue-Light" font-size="58.0" fill="#FEFFFE" transform="matrix(1.00, 0.00, -0.00, -1.00, 889.5, 144.0)"> </text><text xml:space="preserve" font-family="HelveticaNeue-Light" font-size="58.0" fill="#FEFFFE" transform="matrix(1.00, 0.00, -0.00, -1.00, 905.6, 144.0)">e</text><text xml:space="preserve" font-family="HelveticaNeue-Light" font-size="58.0" fill="#FEFFFE" transform="matrix(1.00, 0.00, -0.00, -1.00, 935.7, 144.0)">f</text><text xml:space="preserve" font-family="HelveticaNeue-Light" font-size="58.0" fill="#FEFFFE" transform="matrix(1.00, 0.00, -0.00, -1.00, 949.7, 144.0)">f</text><text xml:space="preserve" font-family="HelveticaNeue-Light" font-size="58.0" fill="#FEFFFE" transform="matrix(1.00, 0.00, -0.00, -1.00, 964.7, 144.0)">e</text><text xml:space="preserve" font-family="HelveticaNeue-Light" font-size="58.0" fill="#FEFFFE" transform="matrix(1.00, 0.00, -0.00, -1.00, 994.8, 144.0)">c</text><text xml:space="preserve" font-family="HelveticaNeue-Light" font-size="58.0" fill="#FEFFFE" transform="matrix(1.00, 0.00, -0.00, -1.00, 1024.9, 144.0)">t</text><image xlink:href="../../27A95B4E-286D-4390-9A8F-0F7DDCF87C28/assets/683D05C0AA41ECC315C0115FDE640A17.png" width="750.00" height="82.00" transform="matrix(1.00, 0.00, -0.00, -1.00, 115.0, 952.0)"></image><text xml:space="preserve" font-family="HelveticaNeue-Light" font-size="100.0" fill="#FEFFFE" transform="matrix(1.00, 0.00, -0.00, -1.00, 120.0, 879.0)">A</text><text xml:space="preserve" font-family="HelveticaNeue-Light" font-size="100.0" fill="#FEFFFE" transform="matrix(1.00, 0.00, -0.00, -1.00, 183.0, 879.0)"> </text><text xml:space="preserve" font-family="HelveticaNeue-Light" font-size="100.0" fill="#FEFFFE" transform="matrix(1.00, 0.00, -0.00, -1.00, 210.8, 879.0)">l</text><text xml:space="preserve" font-family="HelveticaNeue-Light" font-size="100.0" fill="#FEFFFE" transform="matrix(1.00, 0.00, -0.00, -1.00, 229.3, 879.0)">i</text><text xml:space="preserve" font-family="HelveticaNeue-Light" font-size="100.0" fill="#FEFFFE" transform="matrix(1.00, 0.00, -0.00, -1.00, 247.8, 879.0)">t</text><text xml:space="preserve" font-family="HelveticaNeue-Light" font-size="100.0" fill="#FEFFFE" transform="matrix(1.00, 0.00, -0.00, -1.00, 277.4, 879.0)">t</text><text xml:space="preserve" font-family="HelveticaNeue-Light" font-size="100.0" fill="#FEFFFE" transform="matrix(1.00, 0.00, -0.00, -1.00, 307.0, 879.0)">l</text><text xml:space="preserve" font-family="HelveticaNeue-Light" font-size="100.0" fill="#FEFFFE" transform="matrix(1.00, 0.00, -0.00, -1.00, 325.5, 879.0)">e</text><text xml:space="preserve" font-family="HelveticaNeue-Light" font-size="100.0" fill="#FEFFFE" transform="matrix(1.00, 0.00, -0.00, -1.00, 377.4, 879.0)"> </text><text xml:space="preserve" font-family="HelveticaNeue-Light" font-size="100.0" fill="#FEFFFE" transform="matrix(1.00, 0.00, -0.00, -1.00, 405.2, 879.0)">b</text><text xml:space="preserve" font-family="HelveticaNeue-Light" font-size="100.0" fill="#FEFFFE" transform="matrix(1.00, 0.00, -0.00, -1.00, 462.6, 879.0)">i</text><text xml:space="preserve" font-family="HelveticaNeue-Light" font-size="100.0" fill="#FEFFFE" transform="matrix(1.00, 0.00, -0.00, -1.00, 481.1, 879.0)">t</text><text xml:space="preserve" font-family="HelveticaNeue-Light" font-size="100.0" fill="#FEFFFE" transform="matrix(1.00, 0.00, -0.00, -1.00, 510.7, 879.0)"> </text><text xml:space="preserve" font-family="HelveticaNeue-Light" font-size="100.0" fill="#FEFFFE" transform="matrix(1.00, 0.00, -0.00, -1.00, 538.5, 879.0)">o</text><text xml:space="preserve" font-family="HelveticaNeue-Light" font-size="100.0" fill="#FEFFFE" transform="matrix(1.00, 0.00, -0.00, -1.00, 594.1, 879.0)">f</text><text xml:space="preserve" font-family="HelveticaNeue-Light" font-size="100.0" fill="#FEFFFE" transform="matrix(1.00, 0.00, -0.00, -1.00, 620.0, 879.0)"> </text><text xml:space="preserve" font-family="HelveticaNeue-Light" font-size="100.0" fill="#FEFFFE" transform="matrix(1.00, 0.00, -0.00, -1.00, 647.8, 879.0)">m</text><text xml:space="preserve" font-family="HelveticaNeue-Light" font-size="100.0" fill="#FEFFFE" transform="matrix(1.00, 0.00, -0.00, -1.00, 731.1, 879.0)">a</text><text xml:space="preserve" font-family="HelveticaNeue-Light" font-size="100.0" fill="#FEFFFE" transform="matrix(1.00, 0.00, -0.00, -1.00, 783.0, 879.0)">t</text><text xml:space="preserve" font-family="HelveticaNeue-Light" font-size="100.0" fill="#FEFFFE" transform="matrix(1.00, 0.00, -0.00, -1.00, 812.6, 879.0)">h</text><text xml:space="preserve" font-family="HelveticaNeue-Light" font-size="100.0" fill="#FEFFFE" transform="matrix(1.00, 0.00, -0.00, -1.00, 866.3, 879.0)"> </text><image xlink:href="../../27A95B4E-286D-4390-9A8F-0F7DDCF87C28/assets/ECB1D4635D14E2DDFC485FB7400EF111.png" width="427.00" height="30.00" transform="matrix(2.38, 0.00, -0.00, -2.37, 338.0, 800.0)"></image><image xlink:href="../../27A95B4E-286D-4390-9A8F-0F7DDCF87C28/assets/66276BECEAC59BA0BBB65555592971F5.png" width="579.00" height="27.00" transform="matrix(2.06, 0.00, -0.00, -2.07, 234.0, 668.0)"></image><path d="M 0.0 0.0 L 410.9 0.0 " fill="none" stroke="#FF2600" stroke-width="8.00" transform="matrix(1.00, 0.00, 0.00, -1.00, 1004.5, 592.8)"></path></g></svg>