<?xml version="1.0" encoding="UTF-8" standalone="no"?><svg xmlns="http://www.w3.org/2000/svg" xmlns:xlink="http://www.w3.org/1999/xlink" clip-rule="evenodd" stroke-miterlimit="4.00" viewBox="0 0 1920 1080"><desc>SVG generated by Keynote</desc><defs></defs><g transform="matrix(1.00, 0.00, -0.00, -1.00, 0.0, 1080.0)"><g><clipPath id="clip-261"><path d="M 0.0 1080.0 L 1920.0 1080.0 L 1920.0 0.0 L 0.0 0.0 Z M 0.0 1080.0 "></path></clipPath><g clip-path="url(#clip-261)"><image xlink:href="../../A172C229-966A-4E8A-A457-DFB78DE74FB5/assets/4B0075050CC9D0F3DC006F0CDE78D676.jpeg" width="1365.00" height="767.00" transform="matrix(1.41, 0.00, -0.00, -1.41, 0.0, 1080.0)"></image></g></g><image xlink:href="../../6FCFEA55-1278-4E38-A834-8A5BD15C9EB1/assets/95515D273BDCFBFE9A37A4BC955C1C85.png" width="926.00" height="83.00" transform="matrix(1.00, 0.00, -0.00, -1.00, 119.0, 1014.0)"></image><text xml:space="preserve" font-family="HelveticaNeue-Light" font-size="100.0" fill="#FEFFFE" transform="matrix(1.00, 0.00, -0.00, -1.00, 120.0, 940.0)">O</text><text xml:space="preserve" font-family="HelveticaNeue-Light" font-size="100.0" fill="#FEFFFE" transform="matrix(1.00, 0.00, -0.00, -1.00, 194.1, 940.0)">b</text><text xml:space="preserve" font-family="HelveticaNeue-Light" font-size="100.0" fill="#FEFFFE" transform="matrix(1.00, 0.00, -0.00, -1.00, 251.5, 940.0)">s</text><text xml:space="preserve" font-family="HelveticaNeue-Light" font-size="100.0" fill="#FEFFFE" transform="matrix(1.00, 0.00, -0.00, -1.00, 299.6, 940.0)">e</text><text xml:space="preserve" font-family="HelveticaNeue-Light" font-size="100.0" fill="#FEFFFE" transform="matrix(1.00, 0.00, -0.00, -1.00, 351.5, 940.0)">r</text><text xml:space="preserve" font-family="HelveticaNeue-Light" font-size="100.0" fill="#FEFFFE" transform="matrix(1.00, 0.00, -0.00, -1.00, 383.0, 940.0)">v</text><text xml:space="preserve" font-family="HelveticaNeue-Light" font-size="100.0" fill="#FEFFFE" transform="matrix(1.00, 0.00, -0.00, -1.00, 429.3, 940.0)">a</text><text xml:space="preserve" font-family="HelveticaNeue-Light" font-size="100.0" fill="#FEFFFE" transform="matrix(1.00, 0.00, -0.00, -1.00, 481.2, 940.0)">t</text><text xml:space="preserve" font-family="HelveticaNeue-Light" font-size="100.0" fill="#FEFFFE" transform="matrix(1.00, 0.00, -0.00, -1.00, 510.8, 940.0)">i</text><text xml:space="preserve" font-family="HelveticaNeue-Light" font-size="100.0" fill="#FEFFFE" transform="matrix(1.00, 0.00, -0.00, -1.00, 529.3, 940.0)">o</text><text xml:space="preserve" font-family="HelveticaNeue-Light" font-size="100.0" fill="#FEFFFE" transform="matrix(1.00, 0.00, -0.00, -1.00, 584.9, 940.0)">n</text><text xml:space="preserve" font-family="HelveticaNeue-Light" font-size="100.0" fill="#FEFFFE" transform="matrix(1.00, 0.00, -0.00, -1.00, 638.6, 940.0)">a</text><text xml:space="preserve" font-family="HelveticaNeue-Light" font-size="100.0" fill="#FEFFFE" transform="matrix(1.00, 0.00, -0.00, -1.00, 690.5, 940.0)">l</text><text xml:space="preserve" font-family="HelveticaNeue-Light" font-size="100.0" fill="#FEFFFE" transform="matrix(1.00, 0.00, -0.00, -1.00, 709.0, 940.0)"> </text><text xml:space="preserve" font-family="HelveticaNeue-Light" font-size="100.0" fill="#FEFFFE" transform="matrix(1.00, 0.00, -0.00, -1.00, 736.8, 940.0)">s</text><text xml:space="preserve" font-family="HelveticaNeue-Light" font-size="100.0" fill="#FEFFFE" transform="matrix(1.00, 0.00, -0.00, -1.00, 784.9, 940.0)">t</text><text xml:space="preserve" font-family="HelveticaNeue-Light" font-size="100.0" fill="#FEFFFE" transform="matrix(1.00, 0.00, -0.00, -1.00, 814.5, 940.0)">u</text><text xml:space="preserve" font-family="HelveticaNeue-Light" font-size="100.0" fill="#FEFFFE" transform="matrix(1.00, 0.00, -0.00, -1.00, 868.2, 940.0)">d</text><text xml:space="preserve" font-family="HelveticaNeue-Light" font-size="100.0" fill="#FEFFFE" transform="matrix(1.00, 0.00, -0.00, -1.00, 925.6, 940.0)">i</text><text xml:space="preserve" font-family="HelveticaNeue-Light" font-size="100.0" fill="#FEFFFE" transform="matrix(1.00, 0.00, -0.00, -1.00, 944.1, 940.0)">e</text><text xml:space="preserve" font-family="HelveticaNeue-Light" font-size="100.0" fill="#FEFFFE" transform="matrix(1.00, 0.00, -0.00, -1.00, 996.0, 940.0)">s</text><text xml:space="preserve" font-family="HelveticaNeue-Light" font-size="100.0" fill="#FEFFFE" transform="matrix(1.00, 0.00, -0.00, -1.00, 1044.1, 940.0)"> </text><text xml:space="preserve" font-family="LucidaGrande" font-size="100.0" fill="#FEFFFE" transform="matrix(1.00, 0.00, -0.00, -1.00, 1071.9, 940.0)"> </text><image xlink:href="../../6FCFEA55-1278-4E38-A834-8A5BD15C9EB1/assets/11BF183AA99D3FFDD14A1AC1628DE9CD.png" width="954.00" height="99.00" transform="matrix(1.00, 0.00, -0.00, -1.00, 119.0, 892.0)"></image><text xml:space="preserve" font-family="HelveticaNeue-Light" font-size="100.0" fill="#FEFFFE" transform="matrix(1.00, 0.00, -0.00, -1.00, 120.0, 819.0)">a</text><text xml:space="preserve" font-family="HelveticaNeue-Light" font-size="100.0" fill="#FEFFFE" transform="matrix(1.00, 0.00, -0.00, -1.00, 171.9, 819.0)">n</text><text xml:space="preserve" font-family="HelveticaNeue-Light" font-size="100.0" fill="#FEFFFE" transform="matrix(1.00, 0.00, -0.00, -1.00, 225.6, 819.0)">d</text><text xml:space="preserve" font-family="HelveticaNeue-Light" font-size="100.0" fill="#FEFFFE" transform="matrix(1.00, 0.00, -0.00, -1.00, 283.0, 819.0)"> </text><text xml:space="preserve" font-family="HelveticaNeue-Light" font-size="100.0" fill="#FEFFFE" transform="matrix(1.00, 0.00, -0.00, -1.00, 310.8, 819.0)">p</text><text xml:space="preserve" font-family="HelveticaNeue-Light" font-size="100.0" fill="#FEFFFE" transform="matrix(1.00, 0.00, -0.00, -1.00, 368.2, 819.0)">r</text><text xml:space="preserve" font-family="HelveticaNeue-Light" font-size="100.0" fill="#FEFFFE" transform="matrix(1.00, 0.00, -0.00, -1.00, 397.9, 819.0)">o</text><text xml:space="preserve" font-family="HelveticaNeue-Light" font-size="100.0" fill="#FEFFFE" transform="matrix(1.00, 0.00, -0.00, -1.00, 453.5, 819.0)">p</text><text xml:space="preserve" font-family="HelveticaNeue-Light" font-size="100.0" fill="#FEFFFE" transform="matrix(1.00, 0.00, -0.00, -1.00, 510.9, 819.0)">e</text><text xml:space="preserve" font-family="HelveticaNeue-Light" font-size="100.0" fill="#FEFFFE" transform="matrix(1.00, 0.00, -0.00, -1.00, 562.8, 819.0)">n</text><text xml:space="preserve" font-family="HelveticaNeue-Light" font-size="100.0" fill="#FEFFFE" transform="matrix(1.00, 0.00, -0.00, -1.00, 616.5, 819.0)">s</text><text xml:space="preserve" font-family="HelveticaNeue-Light" font-size="100.0" fill="#FEFFFE" transform="matrix(1.00, 0.00, -0.00, -1.00, 664.6, 819.0)">i</text><text xml:space="preserve" font-family="HelveticaNeue-Light" font-size="100.0" fill="#FEFFFE" transform="matrix(1.00, 0.00, -0.00, -1.00, 683.1, 819.0)">t</text><text xml:space="preserve" font-family="HelveticaNeue-Light" font-size="100.0" fill="#FEFFFE" transform="matrix(1.00, 0.00, -0.00, -1.00, 712.7, 819.0)">y</text><text xml:space="preserve" font-family="HelveticaNeue-Light" font-size="100.0" fill="#FEFFFE" transform="matrix(1.00, 0.00, -0.00, -1.00, 759.0, 819.0)"> </text><text xml:space="preserve" font-family="HelveticaNeue-Light" font-size="100.0" fill="#FEFFFE" transform="matrix(1.00, 0.00, -0.00, -1.00, 786.8, 819.0)">s</text><text xml:space="preserve" font-family="HelveticaNeue-Light" font-size="100.0" fill="#FEFFFE" transform="matrix(1.00, 0.00, -0.00, -1.00, 834.9, 819.0)">c</text><text xml:space="preserve" font-family="HelveticaNeue-Light" font-size="100.0" fill="#FEFFFE" transform="matrix(1.00, 0.00, -0.00, -1.00, 886.8, 819.0)">o</text><text xml:space="preserve" font-family="HelveticaNeue-Light" font-size="100.0" fill="#FEFFFE" transform="matrix(1.00, 0.00, -0.00, -1.00, 942.4, 819.0)">r</text><text xml:space="preserve" font-family="HelveticaNeue-Light" font-size="100.0" fill="#FEFFFE" transform="matrix(1.00, 0.00, -0.00, -1.00, 972.1, 819.0)">e</text><text xml:space="preserve" font-family="HelveticaNeue-Light" font-size="100.0" fill="#FEFFFE" transform="matrix(1.00, 0.00, -0.00, -1.00, 1024.0, 819.0)">s</text><image xlink:href="../../4E9E4053-F303-49E3-9BE6-E7970EEA42BD/assets/D78D93A8DEE9B68D58E2A0BAEAF9F97F.png" width="18.00" height="18.00" transform="matrix(1.00, 0.00, -0.00, -1.00, 120.0, 747.0)"></image><g><clipPath id="clip-262"><path d="M 120.0 729.1 L 137.6 729.1 L 137.6 746.8 L 120.0 746.8 Z M 120.0 729.1 "></path></clipPath><g clip-path="url(#clip-262)"><g><g><clipPath id="clip-263"><path d="M 120.0 746.8 L 137.6 746.8 L 137.6 729.1 L 120.0 729.1 Z M 120.0 746.8 "></path></clipPath><g clip-path="url(#clip-263)"><g><clipPath id="clip-264"><path d="M 116.0 722.0 L 142.0 722.0 L 142.0 754.0 L 116.0 754.0 Z M 116.0 722.0 "></path></clipPath><g clip-path="url(#clip-264)"><path d="M 137.6 743.3 C 137.6 744.0 137.2 744.8 136.5 745.6 C 135.8 746.4 135.0 746.8 134.1 746.8 C 133.7 746.8 133.1 746.6 132.2 746.2 C 130.9 745.5 129.7 745.2 128.8 745.2 C 127.8 745.2 126.6 745.5 125.3 746.2 C 124.5 746.6 123.9 746.8 123.4 746.8 C 122.6 746.8 121.8 746.4 121.1 745.6 C 120.4 744.9 120.0 744.1 120.0 743.3 C 120.0 742.8 120.2 742.2 120.6 741.3 C 121.2 740.0 121.5 738.9 121.5 737.9 C 121.5 737.0 121.2 735.9 120.6 734.5 C 120.2 733.7 120.0 733.1 120.0 732.6 C 120.0 731.8 120.4 731.0 121.1 730.2 C 121.8 729.5 122.6 729.1 123.4 729.1 C 123.9 729.1 124.5 729.3 125.3 729.7 C 126.6 730.4 127.8 730.7 128.8 730.7 C 129.7 730.7 130.9 730.4 132.2 729.7 C 133.1 729.3 133.7 729.1 134.1 729.1 C 135.0 729.1 135.8 729.5 136.5 730.2 C 137.2 731.0 137.6 731.8 137.6 732.6 C 137.6 733.1 137.4 733.7 137.0 734.5 C 136.3 735.9 136.0 737.0 136.0 737.9 C 136.0 738.9 136.3 740.0 137.0 741.3 C 137.4 742.2 137.6 742.8 137.6 743.3 " fill="#FFFFFF"></path></g></g></g></g></g></g></g><image xlink:href="../../6FCFEA55-1278-4E38-A834-8A5BD15C9EB1/assets/C37B63274DD415CF2178B0F9ACD9F9E1.png" width="733.00" height="54.00" transform="matrix(1.00, 0.00, -0.00, -1.00, 165.0, 758.0)"></image><text xml:space="preserve" font-family="HelveticaNeue-Light" font-size="50.0" fill="#FEFFFE" transform="matrix(1.00, 0.00, -0.00, -1.00, 169.0, 721.0)">W</text><text xml:space="preserve" font-family="HelveticaNeue-Light" font-size="50.0" fill="#FEFFFE" transform="matrix(1.00, 0.00, -0.00, -1.00, 213.4, 721.0)">e</text><text xml:space="preserve" font-family="HelveticaNeue-Light" font-size="50.0" fill="#FEFFFE" transform="matrix(1.00, 0.00, -0.00, -1.00, 239.4, 721.0)"> </text><text xml:space="preserve" font-family="HelveticaNeue-Light" font-size="50.0" fill="#FEFFFE" transform="matrix(1.00, 0.00, -0.00, -1.00, 253.3, 721.0)">t</text><text xml:space="preserve" font-family="HelveticaNeue-Light" font-size="50.0" fill="#FEFFFE" transform="matrix(1.00, 0.00, -0.00, -1.00, 268.1, 721.0)">y</text><text xml:space="preserve" font-family="HelveticaNeue-Light" font-size="50.0" fill="#FEFFFE" transform="matrix(1.00, 0.00, -0.00, -1.00, 291.2, 721.0)">p</text><text xml:space="preserve" font-family="HelveticaNeue-Light" font-size="50.0" fill="#FEFFFE" transform="matrix(1.00, 0.00, -0.00, -1.00, 320.0, 721.0)">i</text><text xml:space="preserve" font-family="HelveticaNeue-Light" font-size="50.0" fill="#FEFFFE" transform="matrix(1.00, 0.00, -0.00, -1.00, 329.2, 721.0)">c</text><text xml:space="preserve" font-family="HelveticaNeue-Light" font-size="50.0" fill="#FEFFFE" transform="matrix(1.00, 0.00, -0.00, -1.00, 355.2, 721.0)">a</text><text xml:space="preserve" font-family="HelveticaNeue-Light" font-size="50.0" fill="#FEFFFE" transform="matrix(1.00, 0.00, -0.00, -1.00, 381.1, 721.0)">l</text><text xml:space="preserve" font-family="HelveticaNeue-Light" font-size="50.0" fill="#FEFFFE" transform="matrix(1.00, 0.00, -0.00, -1.00, 390.4, 721.0)">l</text><text xml:space="preserve" font-family="HelveticaNeue-Light" font-size="50.0" fill="#FEFFFE" transform="matrix(1.00, 0.00, -0.00, -1.00, 399.6, 721.0)">y</text><text xml:space="preserve" font-family="HelveticaNeue-Light" font-size="50.0" fill="#FEFFFE" transform="matrix(1.00, 0.00, -0.00, -1.00, 422.8, 721.0)"> </text><text xml:space="preserve" font-family="HelveticaNeue-Light" font-size="50.0" fill="#FEFFFE" transform="matrix(1.00, 0.00, -0.00, -1.00, 436.7, 721.0)">d</text><text xml:space="preserve" font-family="HelveticaNeue-Light" font-size="50.0" fill="#FEFFFE" transform="matrix(1.00, 0.00, -0.00, -1.00, 465.4, 721.0)">o</text><text xml:space="preserve" font-family="HelveticaNeue-Light" font-size="50.0" fill="#FEFFFE" transform="matrix(1.00, 0.00, -0.00, -1.00, 493.2, 721.0)">n</text><text xml:space="preserve" font-family="HelveticaNeue-Light" font-size="50.0" fill="#FEFFFE" transform="matrix(1.00, 0.00, -0.00, -1.00, 520.0, 721.0)">’</text><text xml:space="preserve" font-family="HelveticaNeue-Light" font-size="50.0" fill="#FEFFFE" transform="matrix(1.00, 0.00, -0.00, -1.00, 533.0, 721.0)">t</text><text xml:space="preserve" font-family="HelveticaNeue-Light" font-size="50.0" fill="#FEFFFE" transform="matrix(1.00, 0.00, -0.00, -1.00, 547.8, 721.0)"> </text><text xml:space="preserve" font-family="HelveticaNeue-Light" font-size="50.0" fill="#FEFFFE" transform="matrix(1.00, 0.00, -0.00, -1.00, 561.7, 721.0)">h</text><text xml:space="preserve" font-family="HelveticaNeue-Light" font-size="50.0" fill="#FEFFFE" transform="matrix(1.00, 0.00, -0.00, -1.00, 588.6, 721.0)">a</text><text xml:space="preserve" font-family="HelveticaNeue-Light" font-size="50.0" fill="#FEFFFE" transform="matrix(1.00, 0.00, -0.00, -1.00, 614.5, 721.0)">v</text><text xml:space="preserve" font-family="HelveticaNeue-Light" font-size="50.0" fill="#FEFFFE" transform="matrix(1.00, 0.00, -0.00, -1.00, 637.7, 721.0)">e</text><text xml:space="preserve" font-family="HelveticaNeue-Light" font-size="50.0" fill="#FEFFFE" transform="matrix(1.00, 0.00, -0.00, -1.00, 663.6, 721.0)"> </text><text xml:space="preserve" font-family="HelveticaNeue-Light" font-size="50.0" fill="#FEFFFE" transform="matrix(1.00, 0.00, -0.00, -1.00, 677.5, 721.0)">b</text><text xml:space="preserve" font-family="HelveticaNeue-Light" font-size="50.0" fill="#FEFFFE" transform="matrix(1.00, 0.00, -0.00, -1.00, 706.2, 721.0)">a</text><text xml:space="preserve" font-family="HelveticaNeue-Light" font-size="50.0" fill="#FEFFFE" transform="matrix(1.00, 0.00, -0.00, -1.00, 732.2, 721.0)">l</text><text xml:space="preserve" font-family="HelveticaNeue-Light" font-size="50.0" fill="#FEFFFE" transform="matrix(1.00, 0.00, -0.00, -1.00, 741.4, 721.0)">a</text><text xml:space="preserve" font-family="HelveticaNeue-Light" font-size="50.0" fill="#FEFFFE" transform="matrix(1.00, 0.00, -0.00, -1.00, 767.4, 721.0)">n</text><text xml:space="preserve" font-family="HelveticaNeue-Light" font-size="50.0" fill="#FEFFFE" transform="matrix(1.00, 0.00, -0.00, -1.00, 794.2, 721.0)">c</text><text xml:space="preserve" font-family="HelveticaNeue-Light" font-size="50.0" fill="#FEFFFE" transform="matrix(1.00, 0.00, -0.00, -1.00, 820.2, 721.0)">e</text><text xml:space="preserve" font-family="HelveticaNeue-Light" font-size="50.0" fill="#FEFFFE" transform="matrix(1.00, 0.00, -0.00, -1.00, 846.1, 721.0)"> </text><text xml:space="preserve" font-family="HelveticaNeue-Light" font-size="50.0" fill="#FEFFFE" transform="matrix(1.00, 0.00, -0.00, -1.00, 860.0, 721.0)">i</text><text xml:space="preserve" font-family="HelveticaNeue-Light" font-size="50.0" fill="#FEFFFE" transform="matrix(1.00, 0.00, -0.00, -1.00, 869.3, 721.0)">n</text><text xml:space="preserve" font-family="HelveticaNeue-Light" font-size="50.0" fill="#FEFFFE" transform="matrix(1.00, 0.00, -0.00, -1.00, 896.1, 721.0)"> </text><image xlink:href="../../4E9E4053-F303-49E3-9BE6-E7970EEA42BD/assets/737025CDE45ADC76D317154C70B30D89.png" width="459.00" height="45.00" transform="matrix(1.00, 0.00, -0.00, -1.00, 166.0, 698.0)"></image><text xml:space="preserve" font-family="HelveticaNeue-Light" font-size="50.0" fill="#FEFFFE" transform="matrix(1.00, 0.00, -0.00, -1.00, 169.0, 661.0)">o</text><text xml:space="preserve" font-family="HelveticaNeue-Light" font-size="50.0" fill="#FEFFFE" transform="matrix(1.00, 0.00, -0.00, -1.00, 196.8, 661.0)">b</text><text xml:space="preserve" font-family="HelveticaNeue-Light" font-size="50.0" fill="#FEFFFE" transform="matrix(1.00, 0.00, -0.00, -1.00, 225.5, 661.0)">s</text><text xml:space="preserve" font-family="HelveticaNeue-Light" font-size="50.0" fill="#FEFFFE" transform="matrix(1.00, 0.00, -0.00, -1.00, 249.6, 661.0)">e</text><text xml:space="preserve" font-family="HelveticaNeue-Light" font-size="50.0" fill="#FEFFFE" transform="matrix(1.00, 0.00, -0.00, -1.00, 275.5, 661.0)">r</text><text xml:space="preserve" font-family="HelveticaNeue-Light" font-size="50.0" fill="#FEFFFE" transform="matrix(1.00, 0.00, -0.00, -1.00, 291.2, 661.0)">v</text><text xml:space="preserve" font-family="HelveticaNeue-Light" font-size="50.0" fill="#FEFFFE" transform="matrix(1.00, 0.00, -0.00, -1.00, 314.4, 661.0)">a</text><text xml:space="preserve" font-family="HelveticaNeue-Light" font-size="50.0" fill="#FEFFFE" transform="matrix(1.00, 0.00, -0.00, -1.00, 340.4, 661.0)">t</text><text xml:space="preserve" font-family="HelveticaNeue-Light" font-size="50.0" fill="#FEFFFE" transform="matrix(1.00, 0.00, -0.00, -1.00, 355.2, 661.0)">i</text><text xml:space="preserve" font-family="HelveticaNeue-Light" font-size="50.0" fill="#FEFFFE" transform="matrix(1.00, 0.00, -0.00, -1.00, 364.4, 661.0)">o</text><text xml:space="preserve" font-family="HelveticaNeue-Light" font-size="50.0" fill="#FEFFFE" transform="matrix(1.00, 0.00, -0.00, -1.00, 392.2, 661.0)">n</text><text xml:space="preserve" font-family="HelveticaNeue-Light" font-size="50.0" fill="#FEFFFE" transform="matrix(1.00, 0.00, -0.00, -1.00, 419.1, 661.0)">a</text><text xml:space="preserve" font-family="HelveticaNeue-Light" font-size="50.0" fill="#FEFFFE" transform="matrix(1.00, 0.00, -0.00, -1.00, 445.0, 661.0)">l</text><text xml:space="preserve" font-family="HelveticaNeue-Light" font-size="50.0" fill="#FEFFFE" transform="matrix(1.00, 0.00, -0.00, -1.00, 454.3, 661.0)"> </text><text xml:space="preserve" font-family="HelveticaNeue-Light" font-size="50.0" fill="#FEFFFE" transform="matrix(1.00, 0.00, -0.00, -1.00, 468.2, 661.0)">s</text><text xml:space="preserve" font-family="HelveticaNeue-Light" font-size="50.0" fill="#FEFFFE" transform="matrix(1.00, 0.00, -0.00, -1.00, 492.2, 661.0)">t</text><text xml:space="preserve" font-family="HelveticaNeue-Light" font-size="50.0" fill="#FEFFFE" transform="matrix(1.00, 0.00, -0.00, -1.00, 507.0, 661.0)">u</text><text xml:space="preserve" font-family="HelveticaNeue-Light" font-size="50.0" fill="#FEFFFE" transform="matrix(1.00, 0.00, -0.00, -1.00, 533.9, 661.0)">d</text><text xml:space="preserve" font-family="HelveticaNeue-Light" font-size="50.0" fill="#FEFFFE" transform="matrix(1.00, 0.00, -0.00, -1.00, 562.6, 661.0)">i</text><text xml:space="preserve" font-family="HelveticaNeue-Light" font-size="50.0" fill="#FEFFFE" transform="matrix(1.00, 0.00, -0.00, -1.00, 571.8, 661.0)">e</text><text xml:space="preserve" font-family="HelveticaNeue-Light" font-size="50.0" fill="#FEFFFE" transform="matrix(1.00, 0.00, -0.00, -1.00, 597.8, 661.0)">s</text><text xml:space="preserve" font-family="HelveticaNeue-Light" font-size="50.0" fill="#FEFFFE" transform="matrix(1.00, 0.00, -0.00, -1.00, 621.8, 661.0)"> </text><image xlink:href="../../4E9E4053-F303-49E3-9BE6-E7970EEA42BD/assets/B98AD3A717582EA7ECB2A50CA8C5AD73.png" width="18.00" height="19.00" transform="matrix(1.00, 0.00, -0.00, -1.00, 120.0, 577.0)"></image><g><clipPath id="clip-265"><path d="M 120.0 558.5 L 137.6 558.5 L 137.6 576.2 L 120.0 576.2 Z M 120.0 558.5 "></path></clipPath><g clip-path="url(#clip-265)"><g><g><clipPath id="clip-266"><path d="M 120.0 576.2 L 137.6 576.2 L 137.6 558.5 L 120.0 558.5 Z M 120.0 576.2 "></path></clipPath><g clip-path="url(#clip-266)"><g><clipPath id="clip-267"><path d="M 116.0 551.0 L 142.0 551.0 L 142.0 584.0 L 116.0 584.0 Z M 116.0 551.0 "></path></clipPath><g clip-path="url(#clip-267)"><path d="M 137.6 572.6 C 137.6 573.4 137.2 574.2 136.5 575.0 C 135.8 575.8 135.0 576.2 134.1 576.2 C 133.7 576.2 133.1 576.0 132.2 575.6 C 130.9 574.9 129.7 574.6 128.8 574.6 C 127.8 574.6 126.6 574.9 125.3 575.6 C 124.5 576.0 123.9 576.2 123.4 576.2 C 122.6 576.2 121.8 575.8 121.1 575.0 C 120.4 574.3 120.0 573.5 120.0 572.6 C 120.0 572.2 120.2 571.6 120.6 570.7 C 121.2 569.4 121.5 568.3 121.5 567.3 C 121.5 566.4 121.2 565.2 120.6 563.9 C 120.2 563.0 120.0 562.4 120.0 562.0 C 120.0 561.2 120.4 560.4 121.1 559.6 C 121.8 558.9 122.6 558.5 123.4 558.5 C 123.9 558.5 124.5 558.7 125.3 559.1 C 126.6 559.7 127.8 560.1 128.8 560.1 C 129.7 560.1 130.9 559.7 132.2 559.1 C 133.1 558.7 133.7 558.5 134.1 558.5 C 135.0 558.5 135.8 558.9 136.5 559.6 C 137.2 560.4 137.6 561.2 137.6 562.0 C 137.6 562.4 137.4 563.0 137.0 563.9 C 136.3 565.2 136.0 566.4 136.0 567.3 C 136.0 568.3 136.3 569.4 137.0 570.7 C 137.4 571.6 137.6 572.2 137.6 572.6 " fill="#FFFFFF"></path></g></g></g></g></g></g></g><image xlink:href="../../6FCFEA55-1278-4E38-A834-8A5BD15C9EB1/assets/E6CF76AA7CC3DC10752E098EFB469188.png" width="671.00" height="54.00" transform="matrix(1.00, 0.00, -0.00, -1.00, 168.0, 587.0)"></image><text xml:space="preserve" font-family="HelveticaNeue-Light" font-size="50.0" fill="#FEFFFE" transform="matrix(1.00, 0.00, -0.00, -1.00, 169.0, 550.0)">P</text><text xml:space="preserve" font-family="HelveticaNeue-Light" font-size="50.0" fill="#FEFFFE" transform="matrix(1.00, 0.00, -0.00, -1.00, 200.5, 550.0)">r</text><text xml:space="preserve" font-family="HelveticaNeue-Light" font-size="50.0" fill="#FEFFFE" transform="matrix(1.00, 0.00, -0.00, -1.00, 215.3, 550.0)">o</text><text xml:space="preserve" font-family="HelveticaNeue-Light" font-size="50.0" fill="#FEFFFE" transform="matrix(1.00, 0.00, -0.00, -1.00, 243.2, 550.0)">p</text><text xml:space="preserve" font-family="HelveticaNeue-Light" font-size="50.0" fill="#FEFFFE" transform="matrix(1.00, 0.00, -0.00, -1.00, 271.9, 550.0)">e</text><text xml:space="preserve" font-family="HelveticaNeue-Light" font-size="50.0" fill="#FEFFFE" transform="matrix(1.00, 0.00, -0.00, -1.00, 297.8, 550.0)">n</text><text xml:space="preserve" font-family="HelveticaNeue-Light" font-size="50.0" fill="#FEFFFE" transform="matrix(1.00, 0.00, -0.00, -1.00, 324.6, 550.0)">s</text><text xml:space="preserve" font-family="HelveticaNeue-Light" font-size="50.0" fill="#FEFFFE" transform="matrix(1.00, 0.00, -0.00, -1.00, 348.7, 550.0)">i</text><text xml:space="preserve" font-family="HelveticaNeue-Light" font-size="50.0" fill="#FEFFFE" transform="matrix(1.00, 0.00, -0.00, -1.00, 358.0, 550.0)">t</text><text xml:space="preserve" font-family="HelveticaNeue-Light" font-size="50.0" fill="#FEFFFE" transform="matrix(1.00, 0.00, -0.00, -1.00, 372.8, 550.0)">y</text><text xml:space="preserve" font-family="HelveticaNeue-Light" font-size="50.0" fill="#FEFFFE" transform="matrix(1.00, 0.00, -0.00, -1.00, 395.9, 550.0)"> </text><text xml:space="preserve" font-family="HelveticaNeue-Light" font-size="50.0" fill="#FEFFFE" transform="matrix(1.00, 0.00, -0.00, -1.00, 409.8, 550.0)">s</text><text xml:space="preserve" font-family="HelveticaNeue-Light" font-size="50.0" fill="#FEFFFE" transform="matrix(1.00, 0.00, -0.00, -1.00, 433.9, 550.0)">c</text><text xml:space="preserve" font-family="HelveticaNeue-Light" font-size="50.0" fill="#FEFFFE" transform="matrix(1.00, 0.00, -0.00, -1.00, 459.8, 550.0)">o</text><text xml:space="preserve" font-family="HelveticaNeue-Light" font-size="50.0" fill="#FEFFFE" transform="matrix(1.00, 0.00, -0.00, -1.00, 487.6, 550.0)">r</text><text xml:space="preserve" font-family="HelveticaNeue-Light" font-size="50.0" fill="#FEFFFE" transform="matrix(1.00, 0.00, -0.00, -1.00, 502.5, 550.0)">e</text><text xml:space="preserve" font-family="HelveticaNeue-Light" font-size="50.0" fill="#FEFFFE" transform="matrix(1.00, 0.00, -0.00, -1.00, 528.4, 550.0)">:</text><text xml:space="preserve" font-family="HelveticaNeue-Light" font-size="50.0" fill="#FEFFFE" transform="matrix(1.00, 0.00, -0.00, -1.00, 542.3, 550.0)"> </text><text xml:space="preserve" font-family="HelveticaNeue-Light" font-size="50.0" fill="#FEFFFE" transform="matrix(1.00, 0.00, -0.00, -1.00, 556.2, 550.0)">P</text><text xml:space="preserve" font-family="HelveticaNeue-Light" font-size="50.0" fill="#FEFFFE" transform="matrix(1.00, 0.00, -0.00, -1.00, 587.7, 550.0)">r</text><text xml:space="preserve" font-family="HelveticaNeue-Light" font-size="50.0" fill="#FEFFFE" transform="matrix(1.00, 0.00, -0.00, -1.00, 602.5, 550.0)">o</text><text xml:space="preserve" font-family="HelveticaNeue-Light" font-size="50.0" fill="#FEFFFE" transform="matrix(1.00, 0.00, -0.00, -1.00, 630.4, 550.0)">b</text><text xml:space="preserve" font-family="HelveticaNeue-Light" font-size="50.0" fill="#FEFFFE" transform="matrix(1.00, 0.00, -0.00, -1.00, 659.0, 550.0)">a</text><text xml:space="preserve" font-family="HelveticaNeue-Light" font-size="50.0" fill="#FEFFFE" transform="matrix(1.00, 0.00, -0.00, -1.00, 685.0, 550.0)">b</text><text xml:space="preserve" font-family="HelveticaNeue-Light" font-size="50.0" fill="#FEFFFE" transform="matrix(1.00, 0.00, -0.00, -1.00, 713.7, 550.0)">i</text><text xml:space="preserve" font-family="HelveticaNeue-Light" font-size="50.0" fill="#FEFFFE" transform="matrix(1.00, 0.00, -0.00, -1.00, 723.0, 550.0)">l</text><text xml:space="preserve" font-family="HelveticaNeue-Light" font-size="50.0" fill="#FEFFFE" transform="matrix(1.00, 0.00, -0.00, -1.00, 732.2, 550.0)">i</text><text xml:space="preserve" font-family="HelveticaNeue-Light" font-size="50.0" fill="#FEFFFE" transform="matrix(1.00, 0.00, -0.00, -1.00, 741.5, 550.0)">t</text><text xml:space="preserve" font-family="HelveticaNeue-Light" font-size="50.0" fill="#FEFFFE" transform="matrix(1.00, 0.00, -0.00, -1.00, 756.2, 550.0)">y</text><text xml:space="preserve" font-family="HelveticaNeue-Light" font-size="50.0" fill="#FEFFFE" transform="matrix(1.00, 0.00, -0.00, -1.00, 779.4, 550.0)"> </text><text xml:space="preserve" font-family="HelveticaNeue-Light" font-size="50.0" fill="#FEFFFE" transform="matrix(1.00, 0.00, -0.00, -1.00, 793.3, 550.0)">o</text><text xml:space="preserve" font-family="HelveticaNeue-Light" font-size="50.0" fill="#FEFFFE" transform="matrix(1.00, 0.00, -0.00, -1.00, 821.1, 550.0)">f</text><text xml:space="preserve" font-family="HelveticaNeue-Light" font-size="50.0" fill="#FEFFFE" transform="matrix(1.00, 0.00, -0.00, -1.00, 834.0, 550.0)"> </text><image xlink:href="../../6FCFEA55-1278-4E38-A834-8A5BD15C9EB1/assets/7189EBE8A18BCB4E8F6296D67FACA8E8.png" width="552.00" height="55.00" transform="matrix(1.00, 0.00, -0.00, -1.00, 168.0, 527.0)"></image><text xml:space="preserve" font-family="HelveticaNeue-Light" font-size="50.0" fill="#FEFFFE" transform="matrix(1.00, 0.00, -0.00, -1.00, 169.0, 490.0)">r</text><text xml:space="preserve" font-family="HelveticaNeue-Light" font-size="50.0" fill="#FEFFFE" transform="matrix(1.00, 0.00, -0.00, -1.00, 183.8, 490.0)">e</text><text xml:space="preserve" font-family="HelveticaNeue-Light" font-size="50.0" fill="#FEFFFE" transform="matrix(1.00, 0.00, -0.00, -1.00, 209.8, 490.0)">c</text><text xml:space="preserve" font-family="HelveticaNeue-Light" font-size="50.0" fill="#FEFFFE" transform="matrix(1.00, 0.00, -0.00, -1.00, 235.8, 490.0)">e</text><text xml:space="preserve" font-family="HelveticaNeue-Light" font-size="50.0" fill="#FEFFFE" transform="matrix(1.00, 0.00, -0.00, -1.00, 261.7, 490.0)">i</text><text xml:space="preserve" font-family="HelveticaNeue-Light" font-size="50.0" fill="#FEFFFE" transform="matrix(1.00, 0.00, -0.00, -1.00, 270.9, 490.0)">v</text><text xml:space="preserve" font-family="HelveticaNeue-Light" font-size="50.0" fill="#FEFFFE" transform="matrix(1.00, 0.00, -0.00, -1.00, 294.1, 490.0)">i</text><text xml:space="preserve" font-family="HelveticaNeue-Light" font-size="50.0" fill="#FEFFFE" transform="matrix(1.00, 0.00, -0.00, -1.00, 303.4, 490.0)">n</text><text xml:space="preserve" font-family="HelveticaNeue-Light" font-size="50.0" fill="#FEFFFE" transform="matrix(1.00, 0.00, -0.00, -1.00, 330.2, 490.0)">g</text><text xml:space="preserve" font-family="HelveticaNeue-Light" font-size="50.0" fill="#FEFFFE" transform="matrix(1.00, 0.00, -0.00, -1.00, 358.0, 490.0)"> </text><text xml:space="preserve" font-family="HelveticaNeue-Light" font-size="50.0" fill="#FEFFFE" transform="matrix(1.00, 0.00, -0.00, -1.00, 371.9, 490.0)">t</text><text xml:space="preserve" font-family="HelveticaNeue-Light" font-size="50.0" fill="#FEFFFE" transform="matrix(1.00, 0.00, -0.00, -1.00, 386.7, 490.0)">r</text><text xml:space="preserve" font-family="HelveticaNeue-Light" font-size="50.0" fill="#FEFFFE" transform="matrix(1.00, 0.00, -0.00, -1.00, 401.6, 490.0)">e</text><text xml:space="preserve" font-family="HelveticaNeue-Light" font-size="50.0" fill="#FEFFFE" transform="matrix(1.00, 0.00, -0.00, -1.00, 427.5, 490.0)">a</text><text xml:space="preserve" font-family="HelveticaNeue-Light" font-size="50.0" fill="#FEFFFE" transform="matrix(1.00, 0.00, -0.00, -1.00, 453.5, 490.0)">t</text><text xml:space="preserve" font-family="HelveticaNeue-Light" font-size="50.0" fill="#FEFFFE" transform="matrix(1.00, 0.00, -0.00, -1.00, 468.3, 490.0)">m</text><text xml:space="preserve" font-family="HelveticaNeue-Light" font-size="50.0" fill="#FEFFFE" transform="matrix(1.00, 0.00, -0.00, -1.00, 509.9, 490.0)">e</text><text xml:space="preserve" font-family="HelveticaNeue-Light" font-size="50.0" fill="#FEFFFE" transform="matrix(1.00, 0.00, -0.00, -1.00, 535.9, 490.0)">n</text><text xml:space="preserve" font-family="HelveticaNeue-Light" font-size="50.0" fill="#FEFFFE" transform="matrix(1.00, 0.00, -0.00, -1.00, 562.7, 490.0)">t</text><text xml:space="preserve" font-family="HelveticaNeue-Light" font-size="50.0" fill="#FEFFFE" transform="matrix(1.00, 0.00, -0.00, -1.00, 577.5, 490.0)">,</text><text xml:space="preserve" font-family="HelveticaNeue-Light" font-size="50.0" fill="#FEFFFE" transform="matrix(1.00, 0.00, -0.00, -1.00, 591.4, 490.0)"> </text><text xml:space="preserve" font-family="HelveticaNeue-Light" font-size="50.0" fill="#FEFFFE" transform="matrix(1.00, 0.00, -0.00, -1.00, 605.3, 490.0)">g</text><text xml:space="preserve" font-family="HelveticaNeue-Light" font-size="50.0" fill="#FEFFFE" transform="matrix(1.00, 0.00, -0.00, -1.00, 633.1, 490.0)">i</text><text xml:space="preserve" font-family="HelveticaNeue-Light" font-size="50.0" fill="#FEFFFE" transform="matrix(1.00, 0.00, -0.00, -1.00, 642.4, 490.0)">v</text><text xml:space="preserve" font-family="HelveticaNeue-Light" font-size="50.0" fill="#FEFFFE" transform="matrix(1.00, 0.00, -0.00, -1.00, 665.5, 490.0)">e</text><text xml:space="preserve" font-family="HelveticaNeue-Light" font-size="50.0" fill="#FEFFFE" transform="matrix(1.00, 0.00, -0.00, -1.00, 691.5, 490.0)">n</text><text xml:space="preserve" font-family="HelveticaNeue-Light" font-size="50.0" fill="#FEFFFE" transform="matrix(1.00, 0.00, -0.00, -1.00, 718.3, 490.0)"> </text><image xlink:href="../../6FCFEA55-1278-4E38-A834-8A5BD15C9EB1/assets/36541EBE9D30168FB338FC28581256F7.png" width="225.00" height="45.00" transform="matrix(1.00, 0.00, -0.00, -1.00, 166.0, 467.0)"></image><text xml:space="preserve" font-family="HelveticaNeue-Light" font-size="50.0" fill="#FEFFFE" transform="matrix(1.00, 0.00, -0.00, -1.00, 169.0, 430.0)">c</text><text xml:space="preserve" font-family="HelveticaNeue-Light" font-size="50.0" fill="#FEFFFE" transform="matrix(1.00, 0.00, -0.00, -1.00, 194.9, 430.0)">o</text><text xml:space="preserve" font-family="HelveticaNeue-Light" font-size="50.0" fill="#FEFFFE" transform="matrix(1.00, 0.00, -0.00, -1.00, 222.8, 430.0)">v</text><text xml:space="preserve" font-family="HelveticaNeue-Light" font-size="50.0" fill="#FEFFFE" transform="matrix(1.00, 0.00, -0.00, -1.00, 245.9, 430.0)">a</text><text xml:space="preserve" font-family="HelveticaNeue-Light" font-size="50.0" fill="#FEFFFE" transform="matrix(1.00, 0.00, -0.00, -1.00, 271.9, 430.0)">r</text><text xml:space="preserve" font-family="HelveticaNeue-Light" font-size="50.0" fill="#FEFFFE" transform="matrix(1.00, 0.00, -0.00, -1.00, 287.6, 430.0)">i</text><text xml:space="preserve" font-family="HelveticaNeue-Light" font-size="50.0" fill="#FEFFFE" transform="matrix(1.00, 0.00, -0.00, -1.00, 296.9, 430.0)">a</text><text xml:space="preserve" font-family="HelveticaNeue-Light" font-size="50.0" fill="#FEFFFE" transform="matrix(1.00, 0.00, -0.00, -1.00, 322.8, 430.0)">t</text><text xml:space="preserve" font-family="HelveticaNeue-Light" font-size="50.0" fill="#FEFFFE" transform="matrix(1.00, 0.00, -0.00, -1.00, 337.6, 430.0)">e</text><text xml:space="preserve" font-family="HelveticaNeue-Light" font-size="50.0" fill="#FEFFFE" transform="matrix(1.00, 0.00, -0.00, -1.00, 363.6, 430.0)">s</text><image xlink:href="../../6FCFEA55-1278-4E38-A834-8A5BD15C9EB1/assets/823E31CC5D7354A70F7521896C41D98C.png" width="593.00" height="550.00" transform="matrix(1.28, 0.00, -0.00, -1.28, 1025.0, 804.0)"></image><image xlink:href="../../6FCFEA55-1278-4E38-A834-8A5BD15C9EB1/assets/039A74ADB6902935A6A8FDE09092ED2F.png" width="307.00" height="48.00" transform="matrix(1.00, 0.00, -0.00, -1.00, 127.0, 181.0)"></image><text xml:space="preserve" font-family="HelveticaNeue-Light" font-size="45.0" fill="#FEFFFE" transform="matrix(1.00, 0.00, -0.00, -1.00, 132.0, 147.0)">A</text><text xml:space="preserve" font-family="HelveticaNeue-Light" font-size="45.0" fill="#FEFFFE" transform="matrix(1.00, 0.00, -0.00, -1.00, 160.3, 147.0)">u</text><text xml:space="preserve" font-family="HelveticaNeue-Light" font-size="45.0" fill="#FEFFFE" transform="matrix(1.00, 0.00, -0.00, -1.00, 184.5, 147.0)">s</text><text xml:space="preserve" font-family="HelveticaNeue-Light" font-size="45.0" fill="#FEFFFE" transform="matrix(1.00, 0.00, -0.00, -1.00, 206.2, 147.0)">t</text><text xml:space="preserve" font-family="HelveticaNeue-Light" font-size="45.0" fill="#FEFFFE" transform="matrix(1.00, 0.00, -0.00, -1.00, 219.5, 147.0)">i</text><text xml:space="preserve" font-family="HelveticaNeue-Light" font-size="45.0" fill="#FEFFFE" transform="matrix(1.00, 0.00, -0.00, -1.00, 227.8, 147.0)">n</text><text xml:space="preserve" font-family="HelveticaNeue-Light" font-size="45.0" fill="#FEFFFE" transform="matrix(1.00, 0.00, -0.00, -1.00, 252.0, 147.0)"> </text><text xml:space="preserve" font-family="HelveticaNeue-Light" font-size="45.0" fill="#FEFFFE" transform="matrix(1.00, 0.00, -0.00, -1.00, 264.5, 147.0)">&amp;</text><text xml:space="preserve" font-family="HelveticaNeue-Light" font-size="45.0" fill="#FEFFFE" transform="matrix(1.00, 0.00, -0.00, -1.00, 292.0, 147.0)"> </text><text xml:space="preserve" font-family="HelveticaNeue-Light" font-size="45.0" fill="#FEFFFE" transform="matrix(1.00, 0.00, -0.00, -1.00, 304.5, 147.0)">S</text><text xml:space="preserve" font-family="HelveticaNeue-Light" font-size="45.0" fill="#FEFFFE" transform="matrix(1.00, 0.00, -0.00, -1.00, 332.8, 147.0)">t</text><text xml:space="preserve" font-family="HelveticaNeue-Light" font-size="45.0" fill="#FEFFFE" transform="matrix(1.00, 0.00, -0.00, -1.00, 346.2, 147.0)">u</text><text xml:space="preserve" font-family="HelveticaNeue-Light" font-size="45.0" fill="#FEFFFE" transform="matrix(1.00, 0.00, -0.00, -1.00, 370.3, 147.0)">a</text><text xml:space="preserve" font-family="HelveticaNeue-Light" font-size="45.0" fill="#FEFFFE" transform="matrix(1.00, 0.00, -0.00, -1.00, 393.7, 147.0)">r</text><text xml:space="preserve" font-family="HelveticaNeue-Light" font-size="45.0" fill="#FEFFFE" transform="matrix(1.00, 0.00, -0.00, -1.00, 407.8, 147.0)">t</text><text xml:space="preserve" font-family="HelveticaNeue-Light" font-size="45.0" fill="#FEFFFE" transform="matrix(1.00, 0.00, -0.00, -1.00, 421.2, 147.0)">,</text><text xml:space="preserve" font-family="HelveticaNeue-Light" font-size="45.0" fill="#FEFFFE" transform="matrix(1.00, 0.00, -0.00, -1.00, 433.7, 147.0)"> </text><image xlink:href="../../6FCFEA55-1278-4E38-A834-8A5BD15C9EB1/assets/806BE4A7BCDED53F14976EDF6D02B40D.png" width="188.00" height="42.00" transform="matrix(1.00, 0.00, -0.00, -1.00, 442.0, 181.0)"></image><text xml:space="preserve" font-family="HelveticaNeue-LightItalic" font-style="italic" font-size="45.0" fill="#FEFFFE" transform="matrix(1.00, 0.00, -0.00, -1.00, 446.2, 147.0)">S</text><text xml:space="preserve" font-family="HelveticaNeue-LightItalic" font-style="italic" font-size="45.0" fill="#FEFFFE" transform="matrix(1.00, 0.00, -0.00, -1.00, 474.5, 147.0)">t</text><text xml:space="preserve" font-family="HelveticaNeue-LightItalic" font-style="italic" font-size="45.0" fill="#FEFFFE" transform="matrix(1.00, 0.00, -0.00, -1.00, 487.9, 147.0)">a</text><text xml:space="preserve" font-family="HelveticaNeue-LightItalic" font-style="italic" font-size="45.0" fill="#FEFFFE" transform="matrix(1.00, 0.00, -0.00, -1.00, 511.2, 147.0)">t</text><text xml:space="preserve" font-family="HelveticaNeue-LightItalic" font-style="italic" font-size="45.0" fill="#FEFFFE" transform="matrix(1.00, 0.00, -0.00, -1.00, 524.5, 147.0)"> </text><text xml:space="preserve" font-family="HelveticaNeue-LightItalic" font-style="italic" font-size="45.0" fill="#FEFFFE" transform="matrix(1.00, 0.00, -0.00, -1.00, 537.0, 147.0)">M</text><text xml:space="preserve" font-family="HelveticaNeue-LightItalic" font-style="italic" font-size="45.0" fill="#FEFFFE" transform="matrix(1.00, 0.00, -0.00, -1.00, 575.4, 147.0)">e</text><text xml:space="preserve" font-family="HelveticaNeue-LightItalic" font-style="italic" font-size="45.0" fill="#FEFFFE" transform="matrix(1.00, 0.00, -0.00, -1.00, 598.7, 147.0)">d</text><image xlink:href="../../6FCFEA55-1278-4E38-A834-8A5BD15C9EB1/assets/EF1F2EC543B3288BB249202EC7330B71.png" width="106.00" height="41.00" transform="matrix(1.00, 0.00, -0.00, -1.00, 634.0, 180.0)"></image><text xml:space="preserve" font-family="HelveticaNeue-Light" font-size="45.0" fill="#FEFFFE" transform="matrix(1.00, 0.00, -0.00, -1.00, 624.6, 147.0)"> </text><text xml:space="preserve" font-family="HelveticaNeue-Light" font-size="45.0" fill="#FEFFFE" transform="matrix(1.00, 0.00, -0.00, -1.00, 637.1, 147.0)">2</text><text xml:space="preserve" font-family="HelveticaNeue-Light" font-size="45.0" fill="#FEFFFE" transform="matrix(1.00, 0.00, -0.00, -1.00, 662.1, 147.0)">0</text><text xml:space="preserve" font-family="HelveticaNeue-Light" font-size="45.0" fill="#FEFFFE" transform="matrix(1.00, 0.00, -0.00, -1.00, 687.1, 147.0)">1</text><text xml:space="preserve" font-family="HelveticaNeue-Light" font-size="45.0" fill="#FEFFFE" transform="matrix(1.00, 0.00, -0.00, -1.00, 712.1, 147.0)">5</text></g></svg>