<?xml version="1.0" encoding="UTF-8" standalone="no"?><svg xmlns="http://www.w3.org/2000/svg" xmlns:xlink="http://www.w3.org/1999/xlink" clip-rule="evenodd" stroke-miterlimit="4.00" viewBox="0 0 1920 1080"><desc>SVG generated by Keynote</desc><defs></defs><g transform="matrix(1.00, 0.00, -0.00, -1.00, 0.0, 1080.0)"><g><clipPath id="clip-763"><path d="M 0.0 1080.0 L 1920.0 1080.0 L 1920.0 0.0 L 0.0 0.0 Z M 0.0 1080.0 "></path></clipPath><g clip-path="url(#clip-763)"><image xlink:href="../../A172C229-966A-4E8A-A457-DFB78DE74FB5/assets/4B0075050CC9D0F3DC006F0CDE78D676.jpeg" width="1365.00" height="767.00" transform="matrix(1.41, 0.00, -0.00, -1.41, 0.0, 1080.0)"></image></g></g><image xlink:href="4B12BF0F030063CC456C8C94A6D34819.png" width="857.00" height="101.00" transform="matrix(1.00, 0.00, -0.00, -1.00, 115.0, 952.0)"></image><text xml:space="preserve" font-family="HelveticaNeue-Light" font-size="100.0" fill="#FEFFFE" transform="matrix(1.00, 0.00, -0.00, -1.00, 120.0, 879.0)">A</text><text xml:space="preserve" font-family="HelveticaNeue-Light" font-size="100.0" fill="#FEFFFE" transform="matrix(1.00, 0.00, -0.00, -1.00, 183.0, 879.0)">c</text><text xml:space="preserve" font-family="HelveticaNeue-Light" font-size="100.0" fill="#FEFFFE" transform="matrix(1.00, 0.00, -0.00, -1.00, 234.9, 879.0)">k</text><text xml:space="preserve" font-family="HelveticaNeue-Light" font-size="100.0" fill="#FEFFFE" transform="matrix(1.00, 0.00, -0.00, -1.00, 284.9, 879.0)">n</text><text xml:space="preserve" font-family="HelveticaNeue-Light" font-size="100.0" fill="#FEFFFE" transform="matrix(1.00, 0.00, -0.00, -1.00, 338.6, 879.0)">o</text><text xml:space="preserve" font-family="HelveticaNeue-Light" font-size="100.0" fill="#FEFFFE" transform="matrix(1.00, 0.00, -0.00, -1.00, 394.2, 879.0)">w</text><text xml:space="preserve" font-family="HelveticaNeue-Light" font-size="100.0" fill="#FEFFFE" transform="matrix(1.00, 0.00, -0.00, -1.00, 468.3, 879.0)">l</text><text xml:space="preserve" font-family="HelveticaNeue-Light" font-size="100.0" fill="#FEFFFE" transform="matrix(1.00, 0.00, -0.00, -1.00, 486.8, 879.0)">e</text><text xml:space="preserve" font-family="HelveticaNeue-Light" font-size="100.0" fill="#FEFFFE" transform="matrix(1.00, 0.00, -0.00, -1.00, 538.7, 879.0)">d</text><text xml:space="preserve" font-family="HelveticaNeue-Light" font-size="100.0" fill="#FEFFFE" transform="matrix(1.00, 0.00, -0.00, -1.00, 596.1, 879.0)">g</text><text xml:space="preserve" font-family="HelveticaNeue-Light" font-size="100.0" fill="#FEFFFE" transform="matrix(1.00, 0.00, -0.00, -1.00, 651.7, 879.0)">e</text><text xml:space="preserve" font-family="HelveticaNeue-Light" font-size="100.0" fill="#FEFFFE" transform="matrix(1.00, 0.00, -0.00, -1.00, 703.6, 879.0)">m</text><text xml:space="preserve" font-family="HelveticaNeue-Light" font-size="100.0" fill="#FEFFFE" transform="matrix(1.00, 0.00, -0.00, -1.00, 786.9, 879.0)">e</text><text xml:space="preserve" font-family="HelveticaNeue-Light" font-size="100.0" fill="#FEFFFE" transform="matrix(1.00, 0.00, -0.00, -1.00, 838.8, 879.0)">n</text><text xml:space="preserve" font-family="HelveticaNeue-Light" font-size="100.0" fill="#FEFFFE" transform="matrix(1.00, 0.00, -0.00, -1.00, 892.5, 879.0)">t</text><text xml:space="preserve" font-family="HelveticaNeue-Light" font-size="100.0" fill="#FEFFFE" transform="matrix(1.00, 0.00, -0.00, -1.00, 922.1, 879.0)">s</text><image xlink:href="../../4E9E4053-F303-49E3-9BE6-E7970EEA42BD/assets/D78D93A8DEE9B68D58E2A0BAEAF9F97F.png" width="18.00" height="18.00" transform="matrix(1.00, 0.00, -0.00, -1.00, 120.0, 747.0)"></image><g><clipPath id="clip-764"><path d="M 120.0 729.1 L 137.6 729.1 L 137.6 746.8 L 120.0 746.8 Z M 120.0 729.1 "></path></clipPath><g clip-path="url(#clip-764)"><g><g><clipPath id="clip-765"><path d="M 120.0 746.8 L 137.6 746.8 L 137.6 729.1 L 120.0 729.1 Z M 120.0 746.8 "></path></clipPath><g clip-path="url(#clip-765)"><g><clipPath id="clip-766"><path d="M 116.0 722.0 L 142.0 722.0 L 142.0 754.0 L 116.0 754.0 Z M 116.0 722.0 "></path></clipPath><g clip-path="url(#clip-766)"><path d="M 137.6 743.3 C 137.6 744.0 137.2 744.8 136.5 745.6 C 135.8 746.4 135.0 746.8 134.1 746.8 C 133.7 746.8 133.1 746.6 132.2 746.2 C 130.9 745.5 129.7 745.2 128.8 745.2 C 127.8 745.2 126.6 745.5 125.3 746.2 C 124.5 746.6 123.9 746.8 123.4 746.8 C 122.6 746.8 121.8 746.4 121.1 745.6 C 120.4 744.9 120.0 744.1 120.0 743.3 C 120.0 742.8 120.2 742.2 120.6 741.3 C 121.2 740.0 121.5 738.9 121.5 737.9 C 121.5 737.0 121.2 735.9 120.6 734.5 C 120.2 733.7 120.0 733.1 120.0 732.6 C 120.0 731.8 120.4 731.0 121.1 730.2 C 121.8 729.5 122.6 729.1 123.4 729.1 C 123.9 729.1 124.5 729.3 125.3 729.7 C 126.6 730.4 127.8 730.7 128.8 730.7 C 129.7 730.7 130.9 730.4 132.2 729.7 C 133.1 729.3 133.7 729.1 134.1 729.1 C 135.0 729.1 135.8 729.5 136.5 730.2 C 137.2 731.0 137.6 731.8 137.6 732.6 C 137.6 733.1 137.4 733.7 137.0 734.5 C 136.3 735.9 136.0 737.0 136.0 737.9 C 136.0 738.9 136.3 740.0 137.0 741.3 C 137.4 742.2 137.6 742.8 137.6 743.3 " fill="#FFFFFF"></path></g></g></g></g></g></g></g><image xlink:href="139CAB88C3ECDBD440E75235A2B5E5A8.png" width="596.00" height="55.00" transform="matrix(1.00, 0.00, -0.00, -1.00, 167.0, 759.0)"></image><text xml:space="preserve" font-family="HelveticaNeue-Light" font-size="50.0" fill="#FEFFFE" transform="matrix(1.00, 0.00, -0.00, -1.00, 170.0, 721.0)">J</text><text xml:space="preserve" font-family="HelveticaNeue-Light" font-size="50.0" fill="#FEFFFE" transform="matrix(1.00, 0.00, -0.00, -1.00, 195.0, 721.0)">i</text><text xml:space="preserve" font-family="HelveticaNeue-Light" font-size="50.0" fill="#FEFFFE" transform="matrix(1.00, 0.00, -0.00, -1.00, 204.2, 721.0)">m</text><text xml:space="preserve" font-family="HelveticaNeue-Light" font-size="50.0" fill="#FEFFFE" transform="matrix(1.00, 0.00, -0.00, -1.00, 245.9, 721.0)"> </text><text xml:space="preserve" font-family="HelveticaNeue-Light" font-size="50.0" fill="#FEFFFE" transform="matrix(1.00, 0.00, -0.00, -1.00, 259.8, 721.0)">M</text><text xml:space="preserve" font-family="HelveticaNeue-Light" font-size="50.0" fill="#FEFFFE" transform="matrix(1.00, 0.00, -0.00, -1.00, 300.9, 721.0)">a</text><text xml:space="preserve" font-family="HelveticaNeue-Light" font-size="50.0" fill="#FEFFFE" transform="matrix(1.00, 0.00, -0.00, -1.00, 326.8, 721.0)">l</text><text xml:space="preserve" font-family="HelveticaNeue-Light" font-size="50.0" fill="#FEFFFE" transform="matrix(1.00, 0.00, -0.00, -1.00, 336.1, 721.0)">l</text><text xml:space="preserve" font-family="HelveticaNeue-Light" font-size="50.0" fill="#FEFFFE" transform="matrix(1.00, 0.00, -0.00, -1.00, 345.3, 721.0)">e</text><text xml:space="preserve" font-family="HelveticaNeue-Light" font-size="50.0" fill="#FEFFFE" transform="matrix(1.00, 0.00, -0.00, -1.00, 371.2, 721.0)">y</text><text xml:space="preserve" font-family="HelveticaNeue-Light" font-size="50.0" fill="#FEFFFE" transform="matrix(1.00, 0.00, -0.00, -1.00, 394.4, 721.0)"> </text><text xml:space="preserve" font-family="HelveticaNeue-Light" font-size="50.0" fill="#FEFFFE" transform="matrix(1.00, 0.00, -0.00, -1.00, 408.3, 721.0)">(</text><text xml:space="preserve" font-family="HelveticaNeue-Light" font-size="50.0" fill="#FEFFFE" transform="matrix(1.00, 0.00, -0.00, -1.00, 420.4, 721.0)">N</text><text xml:space="preserve" font-family="HelveticaNeue-Light" font-size="50.0" fill="#FEFFFE" transform="matrix(1.00, 0.00, -0.00, -1.00, 455.6, 721.0)">I</text><text xml:space="preserve" font-family="HelveticaNeue-Light" font-size="50.0" fill="#FEFFFE" transform="matrix(1.00, 0.00, -0.00, -1.00, 466.7, 721.0)">H</text><text xml:space="preserve" font-family="HelveticaNeue-Light" font-size="50.0" fill="#FEFFFE" transform="matrix(1.00, 0.00, -0.00, -1.00, 501.9, 721.0)">/</text><text xml:space="preserve" font-family="HelveticaNeue-Light" font-size="50.0" fill="#FEFFFE" transform="matrix(1.00, 0.00, -0.00, -1.00, 518.5, 721.0)">C</text><text xml:space="preserve" font-family="HelveticaNeue-Light" font-size="50.0" fill="#FEFFFE" transform="matrix(1.00, 0.00, -0.00, -1.00, 553.7, 721.0)">I</text><text xml:space="preserve" font-family="HelveticaNeue-Light" font-size="50.0" fill="#FEFFFE" transform="matrix(1.00, 0.00, -0.00, -1.00, 564.8, 721.0)">T</text><text xml:space="preserve" font-family="HelveticaNeue-Light" font-size="50.0" fill="#FEFFFE" transform="matrix(1.00, 0.00, -0.00, -1.00, 587.0, 721.0)">,</text><text xml:space="preserve" font-family="HelveticaNeue-Light" font-size="50.0" fill="#FEFFFE" transform="matrix(1.00, 0.00, -0.00, -1.00, 601.0, 721.0)"> </text><text xml:space="preserve" font-family="HelveticaNeue-Light" font-size="50.0" fill="#FEFFFE" transform="matrix(1.00, 0.00, -0.00, -1.00, 614.8, 721.0)">r</text><text xml:space="preserve" font-family="HelveticaNeue-Light" font-size="50.0" fill="#FEFFFE" transform="matrix(1.00, 0.00, -0.00, -1.00, 629.7, 721.0)">e</text><text xml:space="preserve" font-family="HelveticaNeue-Light" font-size="50.0" fill="#FEFFFE" transform="matrix(1.00, 0.00, -0.00, -1.00, 655.6, 721.0)">t</text><text xml:space="preserve" font-family="HelveticaNeue-Light" font-size="50.0" fill="#FEFFFE" transform="matrix(1.00, 0.00, -0.00, -1.00, 670.5, 721.0)">i</text><text xml:space="preserve" font-family="HelveticaNeue-Light" font-size="50.0" fill="#FEFFFE" transform="matrix(1.00, 0.00, -0.00, -1.00, 679.7, 721.0)">r</text><text xml:space="preserve" font-family="HelveticaNeue-Light" font-size="50.0" fill="#FEFFFE" transform="matrix(1.00, 0.00, -0.00, -1.00, 694.6, 721.0)">e</text><text xml:space="preserve" font-family="HelveticaNeue-Light" font-size="50.0" fill="#FEFFFE" transform="matrix(1.00, 0.00, -0.00, -1.00, 720.5, 721.0)">d</text><text xml:space="preserve" font-family="HelveticaNeue-Light" font-size="50.0" fill="#FEFFFE" transform="matrix(1.00, 0.00, -0.00, -1.00, 749.2, 721.0)">)</text><text xml:space="preserve" font-family="HelveticaNeue-Light" font-size="50.0" fill="#FEFFFE" transform="matrix(1.00, 0.00, -0.00, -1.00, 761.3, 721.0)"> </text><image xlink:href="../../4E9E4053-F303-49E3-9BE6-E7970EEA42BD/assets/D78D93A8DEE9B68D58E2A0BAEAF9F97F.png" width="18.00" height="18.00" transform="matrix(1.00, 0.00, -0.00, -1.00, 120.0, 636.0)"></image><g><clipPath id="clip-767"><path d="M 120.0 618.1 L 137.6 618.1 L 137.6 635.8 L 120.0 635.8 Z M 120.0 618.1 "></path></clipPath><g clip-path="url(#clip-767)"><g><g><clipPath id="clip-768"><path d="M 120.0 635.8 L 137.6 635.8 L 137.6 618.1 L 120.0 618.1 Z M 120.0 635.8 "></path></clipPath><g clip-path="url(#clip-768)"><g><clipPath id="clip-769"><path d="M 116.0 611.0 L 142.0 611.0 L 142.0 643.0 L 116.0 643.0 Z M 116.0 611.0 "></path></clipPath><g clip-path="url(#clip-769)"><path d="M 137.6 632.3 C 137.6 633.0 137.2 633.8 136.5 634.6 C 135.8 635.4 135.0 635.8 134.1 635.8 C 133.7 635.8 133.1 635.6 132.2 635.2 C 130.9 634.5 129.7 634.2 128.8 634.2 C 127.8 634.2 126.6 634.5 125.3 635.2 C 124.5 635.6 123.9 635.8 123.4 635.8 C 122.6 635.8 121.8 635.4 121.1 634.6 C 120.4 633.9 120.0 633.1 120.0 632.3 C 120.0 631.8 120.2 631.2 120.6 630.3 C 121.2 629.0 121.5 627.9 121.5 626.9 C 121.5 626.0 121.2 624.9 120.6 623.5 C 120.2 622.7 120.0 622.1 120.0 621.6 C 120.0 620.8 120.4 620.0 121.1 619.2 C 121.8 618.5 122.6 618.1 123.4 618.1 C 123.9 618.1 124.5 618.3 125.3 618.7 C 126.6 619.4 127.8 619.7 128.8 619.7 C 129.7 619.7 130.9 619.4 132.2 618.7 C 133.1 618.3 133.7 618.1 134.1 618.1 C 135.0 618.1 135.8 618.5 136.5 619.2 C 137.2 620.0 137.6 620.8 137.6 621.6 C 137.6 622.1 137.4 622.7 137.0 623.5 C 136.3 624.9 136.0 626.0 136.0 626.9 C 136.0 627.9 136.3 629.0 137.0 630.3 C 137.4 631.2 137.6 631.8 137.6 632.3 " fill="#FFFFFF"></path></g></g></g></g></g></g></g><image xlink:href="432C851773203080662B5FB44225D05E.png" width="287.00" height="45.00" transform="matrix(1.00, 0.00, -0.00, -1.00, 167.0, 647.0)"></image><text xml:space="preserve" font-family="HelveticaNeue-Light" font-size="50.0" fill="#FEFFFE" transform="matrix(1.00, 0.00, -0.00, -1.00, 170.0, 610.0)">J</text><text xml:space="preserve" font-family="HelveticaNeue-Light" font-size="50.0" fill="#FEFFFE" transform="matrix(1.00, 0.00, -0.00, -1.00, 195.0, 610.0)">a</text><text xml:space="preserve" font-family="HelveticaNeue-Light" font-size="50.0" fill="#FEFFFE" transform="matrix(1.00, 0.00, -0.00, -1.00, 220.9, 610.0)">s</text><text xml:space="preserve" font-family="HelveticaNeue-Light" font-size="50.0" fill="#FEFFFE" transform="matrix(1.00, 0.00, -0.00, -1.00, 245.0, 610.0)">o</text><text xml:space="preserve" font-family="HelveticaNeue-Light" font-size="50.0" fill="#FEFFFE" transform="matrix(1.00, 0.00, -0.00, -1.00, 272.8, 610.0)">n</text><text xml:space="preserve" font-family="HelveticaNeue-Light" font-size="50.0" fill="#FEFFFE" transform="matrix(1.00, 0.00, -0.00, -1.00, 299.6, 610.0)"> </text><text xml:space="preserve" font-family="HelveticaNeue-Light" font-size="50.0" fill="#FEFFFE" transform="matrix(1.00, 0.00, -0.00, -1.00, 313.6, 610.0)">M</text><text xml:space="preserve" font-family="HelveticaNeue-Light" font-size="50.0" fill="#FEFFFE" transform="matrix(1.00, 0.00, -0.00, -1.00, 354.6, 610.0)">o</text><text xml:space="preserve" font-family="HelveticaNeue-Light" font-size="50.0" fill="#FEFFFE" transform="matrix(1.00, 0.00, -0.00, -1.00, 382.4, 610.0)">o</text><text xml:space="preserve" font-family="HelveticaNeue-Light" font-size="50.0" fill="#FEFFFE" transform="matrix(1.00, 0.00, -0.00, -1.00, 410.2, 610.0)">r</text><text xml:space="preserve" font-family="HelveticaNeue-Light" font-size="50.0" fill="#FEFFFE" transform="matrix(1.00, 0.00, -0.00, -1.00, 425.1, 610.0)">e</text><text xml:space="preserve" font-family="HelveticaNeue-Light" font-size="50.0" fill="#FEFFFE" transform="matrix(1.00, 0.00, -0.00, -1.00, 451.0, 610.0)"> </text><image xlink:href="../../4E9E4053-F303-49E3-9BE6-E7970EEA42BD/assets/D78D93A8DEE9B68D58E2A0BAEAF9F97F.png" width="18.00" height="18.00" transform="matrix(1.00, 0.00, -0.00, -1.00, 120.0, 525.0)"></image><g><clipPath id="clip-770"><path d="M 120.0 507.1 L 137.6 507.1 L 137.6 524.8 L 120.0 524.8 Z M 120.0 507.1 "></path></clipPath><g clip-path="url(#clip-770)"><g><g><clipPath id="clip-771"><path d="M 120.0 524.8 L 137.6 524.8 L 137.6 507.1 L 120.0 507.1 Z M 120.0 524.8 "></path></clipPath><g clip-path="url(#clip-771)"><g><clipPath id="clip-772"><path d="M 116.0 500.0 L 142.0 500.0 L 142.0 532.0 L 116.0 532.0 Z M 116.0 500.0 "></path></clipPath><g clip-path="url(#clip-772)"><path d="M 137.6 521.3 C 137.6 522.0 137.2 522.8 136.5 523.6 C 135.8 524.4 135.0 524.8 134.1 524.8 C 133.7 524.8 133.1 524.6 132.2 524.2 C 130.9 523.5 129.7 523.2 128.8 523.2 C 127.8 523.2 126.6 523.5 125.3 524.2 C 124.5 524.6 123.9 524.8 123.4 524.8 C 122.6 524.8 121.8 524.4 121.1 523.6 C 120.4 522.9 120.0 522.1 120.0 521.3 C 120.0 520.8 120.2 520.2 120.6 519.3 C 121.2 518.0 121.5 516.9 121.5 515.9 C 121.5 515.0 121.2 513.9 120.6 512.5 C 120.2 511.7 120.0 511.1 120.0 510.6 C 120.0 509.8 120.4 509.0 121.1 508.2 C 121.8 507.5 122.6 507.1 123.4 507.1 C 123.9 507.1 124.5 507.3 125.3 507.7 C 126.6 508.4 127.8 508.7 128.8 508.7 C 129.7 508.7 130.9 508.4 132.2 507.7 C 133.1 507.3 133.7 507.1 134.1 507.1 C 135.0 507.1 135.8 507.5 136.5 508.2 C 137.2 509.0 137.6 509.8 137.6 510.6 C 137.6 511.1 137.4 511.7 137.0 512.5 C 136.3 513.9 136.0 515.0 136.0 515.9 C 136.0 516.9 136.3 518.0 137.0 519.3 C 137.4 520.2 137.6 520.8 137.6 521.3 " fill="#FFFFFF"></path></g></g></g></g></g></g></g><image xlink:href="BFF0E16318DEC10889FFFE797B0ACC75.png" width="413.00" height="54.00" transform="matrix(1.00, 0.00, -0.00, -1.00, 167.0, 536.0)"></image><text xml:space="preserve" font-family="HelveticaNeue-Light" font-size="50.0" fill="#FEFFFE" transform="matrix(1.00, 0.00, -0.00, -1.00, 170.0, 499.0)">J</text><text xml:space="preserve" font-family="HelveticaNeue-Light" font-size="50.0" fill="#FEFFFE" transform="matrix(1.00, 0.00, -0.00, -1.00, 195.0, 499.0)">o</text><text xml:space="preserve" font-family="HelveticaNeue-Light" font-size="50.0" fill="#FEFFFE" transform="matrix(1.00, 0.00, -0.00, -1.00, 222.8, 499.0)">a</text><text xml:space="preserve" font-family="HelveticaNeue-Light" font-size="50.0" fill="#FEFFFE" transform="matrix(1.00, 0.00, -0.00, -1.00, 248.8, 499.0)">n</text><text xml:space="preserve" font-family="HelveticaNeue-Light" font-size="50.0" fill="#FEFFFE" transform="matrix(1.00, 0.00, -0.00, -1.00, 275.6, 499.0)"> </text><text xml:space="preserve" font-family="HelveticaNeue-Light" font-size="50.0" fill="#FEFFFE" transform="matrix(1.00, 0.00, -0.00, -1.00, 289.5, 499.0)">B</text><text xml:space="preserve" font-family="HelveticaNeue-Light" font-size="50.0" fill="#FEFFFE" transform="matrix(1.00, 0.00, -0.00, -1.00, 322.9, 499.0)">a</text><text xml:space="preserve" font-family="HelveticaNeue-Light" font-size="50.0" fill="#FEFFFE" transform="matrix(1.00, 0.00, -0.00, -1.00, 348.8, 499.0)">i</text><text xml:space="preserve" font-family="HelveticaNeue-Light" font-size="50.0" fill="#FEFFFE" transform="matrix(1.00, 0.00, -0.00, -1.00, 358.1, 499.0)">l</text><text xml:space="preserve" font-family="HelveticaNeue-Light" font-size="50.0" fill="#FEFFFE" transform="matrix(1.00, 0.00, -0.00, -1.00, 367.3, 499.0)">e</text><text xml:space="preserve" font-family="HelveticaNeue-Light" font-size="50.0" fill="#FEFFFE" transform="matrix(1.00, 0.00, -0.00, -1.00, 393.2, 499.0)">y</text><text xml:space="preserve" font-family="HelveticaNeue-Light" font-size="50.0" fill="#FEFFFE" transform="matrix(1.00, 0.00, -0.00, -1.00, 416.4, 499.0)">-</text><text xml:space="preserve" font-family="HelveticaNeue-Light" font-size="50.0" fill="#FEFFFE" transform="matrix(1.00, 0.00, -0.00, -1.00, 434.9, 499.0)">W</text><text xml:space="preserve" font-family="HelveticaNeue-Light" font-size="50.0" fill="#FEFFFE" transform="matrix(1.00, 0.00, -0.00, -1.00, 481.4, 499.0)">i</text><text xml:space="preserve" font-family="HelveticaNeue-Light" font-size="50.0" fill="#FEFFFE" transform="matrix(1.00, 0.00, -0.00, -1.00, 490.7, 499.0)">l</text><text xml:space="preserve" font-family="HelveticaNeue-Light" font-size="50.0" fill="#FEFFFE" transform="matrix(1.00, 0.00, -0.00, -1.00, 499.9, 499.0)">s</text><text xml:space="preserve" font-family="HelveticaNeue-Light" font-size="50.0" fill="#FEFFFE" transform="matrix(1.00, 0.00, -0.00, -1.00, 524.0, 499.0)">o</text><text xml:space="preserve" font-family="HelveticaNeue-Light" font-size="50.0" fill="#FEFFFE" transform="matrix(1.00, 0.00, -0.00, -1.00, 551.8, 499.0)">n</text><text xml:space="preserve" font-family="HelveticaNeue-Light" font-size="50.0" fill="#FEFFFE" transform="matrix(1.00, 0.00, -0.00, -1.00, 578.7, 499.0)"> </text><image xlink:href="../../4E9E4053-F303-49E3-9BE6-E7970EEA42BD/assets/D78D93A8DEE9B68D58E2A0BAEAF9F97F.png" width="18.00" height="18.00" transform="matrix(1.00, 0.00, -0.00, -1.00, 120.0, 414.0)"></image><g><clipPath id="clip-773"><path d="M 120.0 396.1 L 137.6 396.1 L 137.6 413.8 L 120.0 413.8 Z M 120.0 396.1 "></path></clipPath><g clip-path="url(#clip-773)"><g><g><clipPath id="clip-774"><path d="M 120.0 413.8 L 137.6 413.8 L 137.6 396.1 L 120.0 396.1 Z M 120.0 413.8 "></path></clipPath><g clip-path="url(#clip-774)"><g><clipPath id="clip-775"><path d="M 116.0 389.0 L 142.0 389.0 L 142.0 421.0 L 116.0 421.0 Z M 116.0 389.0 "></path></clipPath><g clip-path="url(#clip-775)"><path d="M 137.6 410.3 C 137.6 411.0 137.2 411.8 136.5 412.6 C 135.8 413.4 135.0 413.8 134.1 413.8 C 133.7 413.8 133.1 413.6 132.2 413.2 C 130.9 412.5 129.7 412.2 128.8 412.2 C 127.8 412.2 126.6 412.5 125.3 413.2 C 124.5 413.6 123.9 413.8 123.4 413.8 C 122.6 413.8 121.8 413.4 121.1 412.6 C 120.4 411.9 120.0 411.1 120.0 410.3 C 120.0 409.8 120.2 409.2 120.6 408.3 C 121.2 407.0 121.5 405.9 121.5 404.9 C 121.5 404.0 121.2 402.9 120.6 401.5 C 120.2 400.7 120.0 400.1 120.0 399.6 C 120.0 398.8 120.4 398.0 121.1 397.2 C 121.8 396.5 122.6 396.1 123.4 396.1 C 123.9 396.1 124.5 396.3 125.3 396.7 C 126.6 397.4 127.8 397.7 128.8 397.7 C 129.7 397.7 130.9 397.4 132.2 396.7 C 133.1 396.3 133.7 396.1 134.1 396.1 C 135.0 396.1 135.8 396.5 136.5 397.2 C 137.2 398.0 137.6 398.8 137.6 399.6 C 137.6 400.1 137.4 400.7 137.0 401.5 C 136.3 402.9 136.0 404.0 136.0 404.9 C 136.0 405.9 136.3 407.0 137.0 408.3 C 137.4 409.2 137.6 409.8 137.6 410.3 " fill="#FFFFFF"></path></g></g></g></g></g></g></g><image xlink:href="06DF2565D87A0894D8A5EA96E7990645.png" width="231.00" height="45.00" transform="matrix(1.00, 0.00, -0.00, -1.00, 169.0, 425.0)"></image><text xml:space="preserve" font-family="HelveticaNeue-Light" font-size="50.0" fill="#FEFFFE" transform="matrix(1.00, 0.00, -0.00, -1.00, 170.0, 388.0)">M</text><text xml:space="preserve" font-family="HelveticaNeue-Light" font-size="50.0" fill="#FEFFFE" transform="matrix(1.00, 0.00, -0.00, -1.00, 211.1, 388.0)">i</text><text xml:space="preserve" font-family="HelveticaNeue-Light" font-size="50.0" fill="#FEFFFE" transform="matrix(1.00, 0.00, -0.00, -1.00, 220.3, 388.0)">k</text><text xml:space="preserve" font-family="HelveticaNeue-Light" font-size="50.0" fill="#FEFFFE" transform="matrix(1.00, 0.00, -0.00, -1.00, 245.3, 388.0)">e</text><text xml:space="preserve" font-family="HelveticaNeue-Light" font-size="50.0" fill="#FEFFFE" transform="matrix(1.00, 0.00, -0.00, -1.00, 271.2, 388.0)"> </text><text xml:space="preserve" font-family="HelveticaNeue-Light" font-size="50.0" fill="#FEFFFE" transform="matrix(1.00, 0.00, -0.00, -1.00, 285.2, 388.0)">W</text><text xml:space="preserve" font-family="HelveticaNeue-Light" font-size="50.0" fill="#FEFFFE" transform="matrix(1.00, 0.00, -0.00, -1.00, 328.7, 388.0)">a</text><text xml:space="preserve" font-family="HelveticaNeue-Light" font-size="50.0" fill="#FEFFFE" transform="matrix(1.00, 0.00, -0.00, -1.00, 354.6, 388.0)">r</text><text xml:space="preserve" font-family="HelveticaNeue-Light" font-size="50.0" fill="#FEFFFE" transform="matrix(1.00, 0.00, -0.00, -1.00, 369.5, 388.0)">d</text><text xml:space="preserve" font-family="HelveticaNeue-Light" font-size="50.0" fill="#FEFFFE" transform="matrix(1.00, 0.00, -0.00, -1.00, 398.2, 388.0)"> </text><image xlink:href="../../4E9E4053-F303-49E3-9BE6-E7970EEA42BD/assets/D78D93A8DEE9B68D58E2A0BAEAF9F97F.png" width="18.00" height="18.00" transform="matrix(1.00, 0.00, -0.00, -1.00, 120.0, 303.0)"></image><g><clipPath id="clip-776"><path d="M 120.0 285.1 L 137.6 285.1 L 137.6 302.8 L 120.0 302.8 Z M 120.0 285.1 "></path></clipPath><g clip-path="url(#clip-776)"><g><g><clipPath id="clip-777"><path d="M 120.0 302.8 L 137.6 302.8 L 137.6 285.1 L 120.0 285.1 Z M 120.0 302.8 "></path></clipPath><g clip-path="url(#clip-777)"><g><clipPath id="clip-778"><path d="M 116.0 278.0 L 142.0 278.0 L 142.0 310.0 L 116.0 310.0 Z M 116.0 278.0 "></path></clipPath><g clip-path="url(#clip-778)"><path d="M 137.6 299.3 C 137.6 300.0 137.2 300.8 136.5 301.6 C 135.8 302.4 135.0 302.8 134.1 302.8 C 133.7 302.8 133.1 302.6 132.2 302.2 C 130.9 301.5 129.7 301.2 128.8 301.2 C 127.8 301.2 126.6 301.5 125.3 302.2 C 124.5 302.6 123.9 302.8 123.4 302.8 C 122.6 302.8 121.8 302.4 121.1 301.6 C 120.4 300.9 120.0 300.1 120.0 299.3 C 120.0 298.8 120.2 298.2 120.6 297.3 C 121.2 296.0 121.5 294.9 121.5 293.9 C 121.5 293.0 121.2 291.9 120.6 290.5 C 120.2 289.7 120.0 289.1 120.0 288.6 C 120.0 287.8 120.4 287.0 121.1 286.2 C 121.8 285.5 122.6 285.1 123.4 285.1 C 123.9 285.1 124.5 285.3 125.3 285.7 C 126.6 286.4 127.8 286.7 128.8 286.7 C 129.7 286.7 130.9 286.4 132.2 285.7 C 133.1 285.3 133.7 285.1 134.1 285.1 C 135.0 285.1 135.8 285.5 136.5 286.2 C 137.2 287.0 137.6 287.8 137.6 288.6 C 137.6 289.1 137.4 289.7 137.0 290.5 C 136.3 291.9 136.0 293.0 136.0 293.9 C 136.0 294.9 136.3 296.0 137.0 297.3 C 137.4 298.2 137.6 298.8 137.6 299.3 " fill="#FFFFFF"></path></g></g></g></g></g></g></g><image xlink:href="80A73D972228AD503FC7CAC7FDBD992E.png" width="308.00" height="54.00" transform="matrix(1.00, 0.00, -0.00, -1.00, 165.0, 314.0)"></image><text xml:space="preserve" font-family="HelveticaNeue-Light" font-size="50.0" fill="#FEFFFE" transform="matrix(1.00, 0.00, -0.00, -1.00, 170.0, 277.0)">T</text><text xml:space="preserve" font-family="HelveticaNeue-Light" font-size="50.0" fill="#FEFFFE" transform="matrix(1.00, 0.00, -0.00, -1.00, 192.2, 277.0)">o</text><text xml:space="preserve" font-family="HelveticaNeue-Light" font-size="50.0" fill="#FEFFFE" transform="matrix(1.00, 0.00, -0.00, -1.00, 220.1, 277.0)">m</text><text xml:space="preserve" font-family="HelveticaNeue-Light" font-size="50.0" fill="#FEFFFE" transform="matrix(1.00, 0.00, -0.00, -1.00, 261.7, 277.0)">m</text><text xml:space="preserve" font-family="HelveticaNeue-Light" font-size="50.0" fill="#FEFFFE" transform="matrix(1.00, 0.00, -0.00, -1.00, 303.4, 277.0)">y</text><text xml:space="preserve" font-family="HelveticaNeue-Light" font-size="50.0" fill="#FEFFFE" transform="matrix(1.00, 0.00, -0.00, -1.00, 326.5, 277.0)"> </text><text xml:space="preserve" font-family="HelveticaNeue-Light" font-size="50.0" fill="#FEFFFE" transform="matrix(1.00, 0.00, -0.00, -1.00, 340.4, 277.0)">J</text><text xml:space="preserve" font-family="HelveticaNeue-Light" font-size="50.0" fill="#FEFFFE" transform="matrix(1.00, 0.00, -0.00, -1.00, 365.4, 277.0)">o</text><text xml:space="preserve" font-family="HelveticaNeue-Light" font-size="50.0" fill="#FEFFFE" transform="matrix(1.00, 0.00, -0.00, -1.00, 393.2, 277.0)">n</text><text xml:space="preserve" font-family="HelveticaNeue-Light" font-size="50.0" fill="#FEFFFE" transform="matrix(1.00, 0.00, -0.00, -1.00, 420.1, 277.0)">e</text><text xml:space="preserve" font-family="HelveticaNeue-Light" font-size="50.0" fill="#FEFFFE" transform="matrix(1.00, 0.00, -0.00, -1.00, 446.0, 277.0)">s</text><text xml:space="preserve" font-family="HelveticaNeue-Light" font-size="50.0" fill="#FEFFFE" transform="matrix(1.00, 0.00, -0.00, -1.00, 470.1, 277.0)"> </text><image xlink:href="../../4E9E4053-F303-49E3-9BE6-E7970EEA42BD/assets/D78D93A8DEE9B68D58E2A0BAEAF9F97F.png" width="18.00" height="18.00" transform="matrix(1.00, 0.00, -0.00, -1.00, 120.0, 192.0)"></image><g><clipPath id="clip-779"><path d="M 120.0 174.1 L 137.6 174.1 L 137.6 191.8 L 120.0 191.8 Z M 120.0 174.1 "></path></clipPath><g clip-path="url(#clip-779)"><g><g><clipPath id="clip-780"><path d="M 120.0 191.8 L 137.6 191.8 L 137.6 174.1 L 120.0 174.1 Z M 120.0 191.8 "></path></clipPath><g clip-path="url(#clip-780)"><g><clipPath id="clip-781"><path d="M 116.0 167.0 L 142.0 167.0 L 142.0 199.0 L 116.0 199.0 Z M 116.0 167.0 "></path></clipPath><g clip-path="url(#clip-781)"><path d="M 137.6 188.3 C 137.6 189.0 137.2 189.8 136.5 190.6 C 135.8 191.4 135.0 191.8 134.1 191.8 C 133.7 191.8 133.1 191.6 132.2 191.2 C 130.9 190.5 129.7 190.2 128.8 190.2 C 127.8 190.2 126.6 190.5 125.3 191.2 C 124.5 191.6 123.9 191.8 123.4 191.8 C 122.6 191.8 121.8 191.4 121.1 190.6 C 120.4 189.9 120.0 189.1 120.0 188.3 C 120.0 187.8 120.2 187.2 120.6 186.3 C 121.2 185.0 121.5 183.9 121.5 182.9 C 121.5 182.0 121.2 180.9 120.6 179.5 C 120.2 178.7 120.0 178.1 120.0 177.6 C 120.0 176.8 120.4 176.0 121.1 175.2 C 121.8 174.5 122.6 174.1 123.4 174.1 C 123.9 174.1 124.5 174.3 125.3 174.7 C 126.6 175.4 127.8 175.7 128.8 175.7 C 129.7 175.7 130.9 175.4 132.2 174.7 C 133.1 174.3 133.7 174.1 134.1 174.1 C 135.0 174.1 135.8 174.5 136.5 175.2 C 137.2 176.0 137.6 176.8 137.6 177.6 C 137.6 178.1 137.4 178.7 137.0 179.5 C 136.3 180.9 136.0 182.0 136.0 182.9 C 136.0 183.9 136.3 185.0 137.0 186.3 C 137.4 187.2 137.6 187.8 137.6 188.3 " fill="#FFFFFF"></path></g></g></g></g></g></g></g><image xlink:href="2B2451DB7938A1ED11EC50E3DACF7A2B.png" width="1354.00" height="55.00" transform="matrix(1.00, 0.00, -0.00, -1.00, 165.0, 203.0)"></image><text xml:space="preserve" font-family="HelveticaNeue-Light" font-size="50.0" fill="#FEFFFE" transform="matrix(1.00, 0.00, -0.00, -1.00, 170.0, 166.0)">V</text><text xml:space="preserve" font-family="HelveticaNeue-Light" font-size="50.0" fill="#FEFFFE" transform="matrix(1.00, 0.00, -0.00, -1.00, 196.9, 166.0)">a</text><text xml:space="preserve" font-family="HelveticaNeue-Light" font-size="50.0" fill="#FEFFFE" transform="matrix(1.00, 0.00, -0.00, -1.00, 222.9, 166.0)">r</text><text xml:space="preserve" font-family="HelveticaNeue-Light" font-size="50.0" fill="#FEFFFE" transform="matrix(1.00, 0.00, -0.00, -1.00, 238.6, 166.0)">i</text><text xml:space="preserve" font-family="HelveticaNeue-Light" font-size="50.0" fill="#FEFFFE" transform="matrix(1.00, 0.00, -0.00, -1.00, 247.9, 166.0)">o</text><text xml:space="preserve" font-family="HelveticaNeue-Light" font-size="50.0" fill="#FEFFFE" transform="matrix(1.00, 0.00, -0.00, -1.00, 275.6, 166.0)">u</text><text xml:space="preserve" font-family="HelveticaNeue-Light" font-size="50.0" fill="#FEFFFE" transform="matrix(1.00, 0.00, -0.00, -1.00, 302.5, 166.0)">s</text><text xml:space="preserve" font-family="HelveticaNeue-Light" font-size="50.0" fill="#FEFFFE" transform="matrix(1.00, 0.00, -0.00, -1.00, 326.6, 166.0)"> </text><text xml:space="preserve" font-family="HelveticaNeue-Light" font-size="50.0" fill="#FEFFFE" transform="matrix(1.00, 0.00, -0.00, -1.00, 340.5, 166.0)">o</text><text xml:space="preserve" font-family="HelveticaNeue-Light" font-size="50.0" fill="#FEFFFE" transform="matrix(1.00, 0.00, -0.00, -1.00, 368.2, 166.0)">t</text><text xml:space="preserve" font-family="HelveticaNeue-Light" font-size="50.0" fill="#FEFFFE" transform="matrix(1.00, 0.00, -0.00, -1.00, 383.1, 166.0)">h</text><text xml:space="preserve" font-family="HelveticaNeue-Light" font-size="50.0" fill="#FEFFFE" transform="matrix(1.00, 0.00, -0.00, -1.00, 409.9, 166.0)">e</text><text xml:space="preserve" font-family="HelveticaNeue-Light" font-size="50.0" fill="#FEFFFE" transform="matrix(1.00, 0.00, -0.00, -1.00, 435.9, 166.0)">r</text><text xml:space="preserve" font-family="HelveticaNeue-Light" font-size="50.0" fill="#FEFFFE" transform="matrix(1.00, 0.00, -0.00, -1.00, 451.6, 166.0)">s</text><text xml:space="preserve" font-family="HelveticaNeue-Light" font-size="50.0" fill="#FEFFFE" transform="matrix(1.00, 0.00, -0.00, -1.00, 475.7, 166.0)"> </text><text xml:space="preserve" font-family="HelveticaNeue-Light" font-size="50.0" fill="#FEFFFE" transform="matrix(1.00, 0.00, -0.00, -1.00, 489.6, 166.0)">a</text><text xml:space="preserve" font-family="HelveticaNeue-Light" font-size="50.0" fill="#FEFFFE" transform="matrix(1.00, 0.00, -0.00, -1.00, 515.5, 166.0)">t</text><text xml:space="preserve" font-family="HelveticaNeue-Light" font-size="50.0" fill="#FEFFFE" transform="matrix(1.00, 0.00, -0.00, -1.00, 530.3, 166.0)"> </text><text xml:space="preserve" font-family="HelveticaNeue-Light" font-size="50.0" fill="#FEFFFE" transform="matrix(1.00, 0.00, -0.00, -1.00, 544.2, 166.0)">m</text><text xml:space="preserve" font-family="HelveticaNeue-Light" font-size="50.0" fill="#FEFFFE" transform="matrix(1.00, 0.00, -0.00, -1.00, 585.9, 166.0)">e</text><text xml:space="preserve" font-family="HelveticaNeue-Light" font-size="50.0" fill="#FEFFFE" transform="matrix(1.00, 0.00, -0.00, -1.00, 611.8, 166.0)">e</text><text xml:space="preserve" font-family="HelveticaNeue-Light" font-size="50.0" fill="#FEFFFE" transform="matrix(1.00, 0.00, -0.00, -1.00, 637.8, 166.0)">t</text><text xml:space="preserve" font-family="HelveticaNeue-Light" font-size="50.0" fill="#FEFFFE" transform="matrix(1.00, 0.00, -0.00, -1.00, 652.5, 166.0)"> </text><text xml:space="preserve" font-family="HelveticaNeue-Light" font-size="50.0" fill="#FEFFFE" transform="matrix(1.00, 0.00, -0.00, -1.00, 666.5, 166.0)">u</text><text xml:space="preserve" font-family="HelveticaNeue-Light" font-size="50.0" fill="#FEFFFE" transform="matrix(1.00, 0.00, -0.00, -1.00, 693.3, 166.0)">p</text><text xml:space="preserve" font-family="HelveticaNeue-Light" font-size="50.0" fill="#FEFFFE" transform="matrix(1.00, 0.00, -0.00, -1.00, 722.0, 166.0)">s</text><text xml:space="preserve" font-family="HelveticaNeue-Light" font-size="50.0" fill="#FEFFFE" transform="matrix(1.00, 0.00, -0.00, -1.00, 746.0, 166.0)"> </text><text xml:space="preserve" font-family="HelveticaNeue-Light" font-size="50.0" fill="#FEFFFE" transform="matrix(1.00, 0.00, -0.00, -1.00, 759.9, 166.0)">w</text><text xml:space="preserve" font-family="HelveticaNeue-Light" font-size="50.0" fill="#FEFFFE" transform="matrix(1.00, 0.00, -0.00, -1.00, 797.0, 166.0)">h</text><text xml:space="preserve" font-family="HelveticaNeue-Light" font-size="50.0" fill="#FEFFFE" transform="matrix(1.00, 0.00, -0.00, -1.00, 823.8, 166.0)">o</text><text xml:space="preserve" font-family="HelveticaNeue-Light" font-size="50.0" fill="#FEFFFE" transform="matrix(1.00, 0.00, -0.00, -1.00, 851.6, 166.0)"> </text><text xml:space="preserve" font-family="HelveticaNeue-Light" font-size="50.0" fill="#FEFFFE" transform="matrix(1.00, 0.00, -0.00, -1.00, 865.5, 166.0)">p</text><text xml:space="preserve" font-family="HelveticaNeue-Light" font-size="50.0" fill="#FEFFFE" transform="matrix(1.00, 0.00, -0.00, -1.00, 894.2, 166.0)">r</text><text xml:space="preserve" font-family="HelveticaNeue-Light" font-size="50.0" fill="#FEFFFE" transform="matrix(1.00, 0.00, -0.00, -1.00, 909.1, 166.0)">o</text><text xml:space="preserve" font-family="HelveticaNeue-Light" font-size="50.0" fill="#FEFFFE" transform="matrix(1.00, 0.00, -0.00, -1.00, 936.9, 166.0)">v</text><text xml:space="preserve" font-family="HelveticaNeue-Light" font-size="50.0" fill="#FEFFFE" transform="matrix(1.00, 0.00, -0.00, -1.00, 960.0, 166.0)">i</text><text xml:space="preserve" font-family="HelveticaNeue-Light" font-size="50.0" fill="#FEFFFE" transform="matrix(1.00, 0.00, -0.00, -1.00, 969.3, 166.0)">d</text><text xml:space="preserve" font-family="HelveticaNeue-Light" font-size="50.0" fill="#FEFFFE" transform="matrix(1.00, 0.00, -0.00, -1.00, 998.0, 166.0)">e</text><text xml:space="preserve" font-family="HelveticaNeue-Light" font-size="50.0" fill="#FEFFFE" transform="matrix(1.00, 0.00, -0.00, -1.00, 1023.9, 166.0)">d</text><text xml:space="preserve" font-family="HelveticaNeue-Light" font-size="50.0" fill="#FEFFFE" transform="matrix(1.00, 0.00, -0.00, -1.00, 1052.7, 166.0)"> </text><text xml:space="preserve" font-family="HelveticaNeue-Light" font-size="50.0" fill="#FEFFFE" transform="matrix(1.00, 0.00, -0.00, -1.00, 1066.5, 166.0)">i</text><text xml:space="preserve" font-family="HelveticaNeue-Light" font-size="50.0" fill="#FEFFFE" transform="matrix(1.00, 0.00, -0.00, -1.00, 1075.8, 166.0)">n</text><text xml:space="preserve" font-family="HelveticaNeue-Light" font-size="50.0" fill="#FEFFFE" transform="matrix(1.00, 0.00, -0.00, -1.00, 1102.7, 166.0)">s</text><text xml:space="preserve" font-family="HelveticaNeue-Light" font-size="50.0" fill="#FEFFFE" transform="matrix(1.00, 0.00, -0.00, -1.00, 1126.7, 166.0)">i</text><text xml:space="preserve" font-family="HelveticaNeue-Light" font-size="50.0" fill="#FEFFFE" transform="matrix(1.00, 0.00, -0.00, -1.00, 1135.9, 166.0)">g</text><text xml:space="preserve" font-family="HelveticaNeue-Light" font-size="50.0" fill="#FEFFFE" transform="matrix(1.00, 0.00, -0.00, -1.00, 1163.8, 166.0)">h</text><text xml:space="preserve" font-family="HelveticaNeue-Light" font-size="50.0" fill="#FEFFFE" transform="matrix(1.00, 0.00, -0.00, -1.00, 1190.6, 166.0)">t</text><text xml:space="preserve" font-family="HelveticaNeue-Light" font-size="50.0" fill="#FEFFFE" transform="matrix(1.00, 0.00, -0.00, -1.00, 1205.4, 166.0)"> </text><text xml:space="preserve" font-family="HelveticaNeue-Light" font-size="50.0" fill="#FEFFFE" transform="matrix(1.00, 0.00, -0.00, -1.00, 1219.3, 166.0)">a</text><text xml:space="preserve" font-family="HelveticaNeue-Light" font-size="50.0" fill="#FEFFFE" transform="matrix(1.00, 0.00, -0.00, -1.00, 1245.2, 166.0)">n</text><text xml:space="preserve" font-family="HelveticaNeue-Light" font-size="50.0" fill="#FEFFFE" transform="matrix(1.00, 0.00, -0.00, -1.00, 1272.1, 166.0)">d</text><text xml:space="preserve" font-family="HelveticaNeue-Light" font-size="50.0" fill="#FEFFFE" transform="matrix(1.00, 0.00, -0.00, -1.00, 1300.8, 166.0)"> </text><text xml:space="preserve" font-family="HelveticaNeue-Light" font-size="50.0" fill="#FEFFFE" transform="matrix(1.00, 0.00, -0.00, -1.00, 1314.7, 166.0)">f</text><text xml:space="preserve" font-family="HelveticaNeue-Light" font-size="50.0" fill="#FEFFFE" transform="matrix(1.00, 0.00, -0.00, -1.00, 1327.7, 166.0)">e</text><text xml:space="preserve" font-family="HelveticaNeue-Light" font-size="50.0" fill="#FEFFFE" transform="matrix(1.00, 0.00, -0.00, -1.00, 1353.6, 166.0)">e</text><text xml:space="preserve" font-family="HelveticaNeue-Light" font-size="50.0" fill="#FEFFFE" transform="matrix(1.00, 0.00, -0.00, -1.00, 1379.6, 166.0)">d</text><text xml:space="preserve" font-family="HelveticaNeue-Light" font-size="50.0" fill="#FEFFFE" transform="matrix(1.00, 0.00, -0.00, -1.00, 1408.3, 166.0)">b</text><text xml:space="preserve" font-family="HelveticaNeue-Light" font-size="50.0" fill="#FEFFFE" transform="matrix(1.00, 0.00, -0.00, -1.00, 1437.0, 166.0)">a</text><text xml:space="preserve" font-family="HelveticaNeue-Light" font-size="50.0" fill="#FEFFFE" transform="matrix(1.00, 0.00, -0.00, -1.00, 1462.9, 166.0)">c</text><text xml:space="preserve" font-family="HelveticaNeue-Light" font-size="50.0" fill="#FEFFFE" transform="matrix(1.00, 0.00, -0.00, -1.00, 1488.9, 166.0)">k</text></g></svg>